<?xml version="1.0" encoding="UTF-8" standalone="no"?>
<svg
   id="svg8"
   version="1.1"
   height="496"
   width="496"
   xmlns="http://www.w3.org/2000/svg"
   xmlns:svg="http://www.w3.org/2000/svg"
   xmlns:rdf="http://www.w3.org/1999/02/22-rdf-syntax-ns#"
   xmlns:cc="http://creativecommons.org/ns#"
   xmlns:dc="http://purl.org/dc/elements/1.1/">
  <metadata
     id="metadata14">
    <rdf:RDF>
      <cc:Work
         rdf:about="">
        <dc:format>image/svg+xml</dc:format>
        <dc:type
           rdf:resource="http://purl.org/dc/dcmitype/StillImage" />
      </cc:Work>
    </rdf:RDF>
  </metadata>
  <defs
     id="defs12" />
  <g
     style="clip-rule:evenodd;fill-rule:evenodd;stroke-linejoin:round;stroke-miterlimit:2"
     id="g849"
     transform="matrix(0.91717941,0,0,0.91717941,-16.480902,-15.836491)">
    <g
       id="layer8"
       style="display:inline"
       transform="translate(287.5,550)" />
    <g
       id="layer7"
       style="display:inline"
       transform="translate(287.5,550)">
      <path
         id="path1639"
         style="color:#000000;overflow:visible;fill:#2c2c2c;fill-opacity:1;fill-rule:evenodd;stroke:none;stroke-width:1;stroke-linecap:round;stroke-linejoin:round;stroke-miterlimit:2;stroke-dasharray:none;stroke-opacity:0.5;paint-order:stroke markers fill"
         d="M 475,150 H 350 L 349.998,550 483.73242,455.27344 460,390 515.63477,432.67383 600,372.91602 Z"
         transform="translate(-350,-550)" />
      <path
         style="color:#000000;overflow:visible;fill:#d3506f;fill-opacity:1;fill-rule:evenodd;stroke:none;stroke-width:1;stroke-linecap:round;stroke-linejoin:round;stroke-miterlimit:2;stroke-dasharray:none;stroke-opacity:0.5;paint-order:stroke markers fill"
         d="M -250,-177.08333 C -166.66667,-118.05555 -83.333333,-59.027777 0,0 5.6168904,-20.318129 16.776706,-39.823731 15.408525,-61.428776 17.385993,-140.95252 19.363462,-220.47626 21.340931,-300 14.958616,-318.63132 1.1436116,-335.70762 0.15443549,-355.54282 -8.4459121,-369.69334 -32.776816,-369.88554 -47.284099,-378.91365 -65.55003,-385.68541 -83.435815,-394.4311 -101.93339,-400 c -7.68887,0 -15.37774,0 -23.06661,0 -41.66667,74.30556 -83.33333,148.61111 -125,222.91667 z"
         id="path1627" />
      <path
         style="color:#000000;overflow:visible;fill:#a61200;fill-opacity:1;fill-rule:evenodd;stroke:none;stroke-width:1;stroke-linecap:round;stroke-linejoin:round;stroke-miterlimit:2;stroke-dasharray:none;stroke-opacity:0.5;paint-order:stroke markers fill"
         d="m -125,-400 c 41.666668,-14.15094 83.333332,-28.30189 125,-42.45283 19.801989,6.7252 39.603976,13.45041 59.405965,20.17561 -3.906867,5.09703 -24.217781,15.8645 -8.103858,17.85923 24.550851,1.71846 49.137783,2.84775 73.697893,4.41799 -41.666667,17.44186 -83.333333,34.88372 -125,52.32558"
         id="path1629" />
      <path
         style="color:#000000;overflow:visible;fill:#00a67c;fill-opacity:1;fill-rule:evenodd;stroke:none;stroke-width:1;stroke-linecap:round;stroke-linejoin:round;stroke-miterlimit:2;stroke-dasharray:none;stroke-opacity:0.5;paint-order:stroke markers fill"
         d="m -24.999998,-475 c 24.9999993333333,0 49.999999,0 74.999998,0 -3.333333,-16.66667 -6.666667,-33.33333 -10,-50 -21.666664,16.66667 -43.3333345,33.33333 -64.999998,50 z"
         id="path1631" />
      <path
         style="color:#000000;overflow:visible;fill:#edbb60;fill-opacity:1;fill-rule:evenodd;stroke:none;stroke-width:1;stroke-linecap:round;stroke-linejoin:round;stroke-miterlimit:2;stroke-dasharray:none;stroke-opacity:0.5;paint-order:stroke markers fill"
         d="m 4.9025e-5,-400 c 3.25e-7,-41.66667 6.5e-7,-83.33333 9.75e-7,-125 -16.666686,8.33333 -33.333367,16.66667 -50.000053,25 16.666688,33.33333 33.333364,66.66667 50.000052025,100 z"
         id="path1633" />
      <path
         style="color:#000000;overflow:visible;fill:#ffffff;fill-opacity:1;fill-rule:evenodd;stroke:none;stroke-width:1;stroke-linecap:round;stroke-linejoin:round;stroke-miterlimit:2;stroke-dasharray:none;stroke-opacity:0.5;paint-order:stroke markers fill"
         d="M 133.73205,-94.726837 C 122.79246,-109.93118 111.85288,-125.13553 100.91329,-140.33988 67.27492,-93.55992 33.63655,-46.77996 -0.00182072,0 -0.00121381,-115.89147 -6.0690667e-4,-231.78295 0,-347.67442 c 55.211897,76.78306 110.42379,153.56611 165.63569,230.34917 -10.63455,7.5328 -21.26909,15.06561 -31.90364,22.598413 z"
         id="path1641" />
      <path
         style="color:#000000;overflow:visible;fill:#96caf3;fill-opacity:1;fill-rule:evenodd;stroke:none;stroke-width:1;stroke-linecap:round;stroke-linejoin:round;stroke-miterlimit:2;stroke-dasharray:none;stroke-opacity:0.5;paint-order:stroke markers fill"
         d="m 40,-106.7907 c 0,-39.4031 0,-78.8062 0,-118.2093 14.188768,19.70223 28.377535,39.40446 42.566303,59.10669 C 68.377535,-146.19244 54.188768,-126.49157 40,-106.7907 Z"
         id="path1643" />
      <path
         style="color:#000000;overflow:visible;opacity:1;fill:#530900;fill-opacity:1;fill-rule:evenodd;stroke:none;stroke-width:1.803;stroke-linecap:round;stroke-linejoin:round;stroke-miterlimit:2;stroke-dasharray:none;stroke-opacity:0.5;paint-order:stroke markers fill"
         d="M 4.9025e-5,-400 C 41.666699,-400 83.33335,-400 125,-400 c -21.86468,-7.42574 -43.729357,-14.85148 -65.594035,-22.27722"
         id="path1955" />
    </g>
  </g>
</svg>
