<?xml version="1.0" encoding="UTF-8" standalone="no"?>
<!-- Created with Inkscape (http://www.inkscape.org/) -->

<svg
   sodipodi:docname="EndeavourOS_Logo_bw.svg"
   id="svg5"
   version="1.1"
   viewBox="0 0 131.23333 131.23334"
   height="496"
   width="496"
   inkscape:version="1.1.1 (3bf5ae0d25, 2021-09-20)"
   xmlns:inkscape="http://www.inkscape.org/namespaces/inkscape"
   xmlns:sodipodi="http://sodipodi.sourceforge.net/DTD/sodipodi-0.dtd"
   xmlns="http://www.w3.org/2000/svg"
   xmlns:svg="http://www.w3.org/2000/svg">
  <sodipodi:namedview
     id="namedview7"
     pagecolor="#ffffff"
     bordercolor="#666666"
     borderopacity="1.0"
     inkscape:pageshadow="2"
     inkscape:pageopacity="0.0"
     inkscape:pagecheckerboard="0"
     inkscape:document-units="mm"
     showgrid="false"
     units="px"
     width="496px"
     inkscape:zoom="0.62983305"
     inkscape:cx="77.798394"
     inkscape:cy="560.46598"
     inkscape:window-width="1920"
     inkscape:window-height="1020"
     inkscape:window-x="0"
     inkscape:window-y="28"
     inkscape:window-maximized="1"
     inkscape:current-layer="g20" />
  <defs
     id="defs2" />
  <g
     inkscape:label="Layer 1"
     inkscape:groupmode="layer"
     id="layer1">
    <g
       transform="matrix(3.8123445,0,0,3.5284776,-1318.4244,-71.638005)"
       id="g26">
      <g
         transform="matrix(0.65134496,0,0,0.6634673,448.54237,52.231766)"
         id="g20">
        <path
           d="m -127,-42.3 c 4.57,6.45 23.8,31.4 10.7,36.6 -6.12,2.81 -34,-1.65 -33.6,-0.921 -2,3.28 -3.59,5.92 -3.59,5.92 0,0 21.5,0.967 38.1,-1.27 23.7,-3.18 -4.88,-33.5 -11.6,-40.3 z"
           style="fill:#cccccc;stroke-width:0.585;fill-opacity:1"
           inkscape:connector-curvature="0"
           id="path14" />
        <path
           d="m -127,-42.3 c -1.52,0.209 -29.4,34.5 -29.4,34.5 0,0 2.01,0.57 6.58,1.23 1.48,-1.15 22.3,-36.2 22.9,-35.7 -0.0107,-0.0141 -0.028,-0.0193 -0.0522,-0.016 z"
           style="fill:#cccccc;stroke-width:0.585;fill-opacity:0.85461253"
           inkscape:connector-curvature="0"
           id="path16" />
        <path
           d="m -127,-42.3 c -0.96,-0.156 -22.9,35.7 -22.9,35.7 0,0 19.9,2.1 28.1,1.96 23.1,-0.39 0.176,-30.6 -5.16,-37.7 -0.007,-0.007 -0.0151,-0.0108 -0.0248,-0.0124 z"
           style="fill:#cccccc;stroke-width:0.585;fill-opacity:0.54827821"
           inkscape:connector-curvature="0"
           id="path18" />
      </g>
    </g>
  </g>
</svg>
