<?xml version="1.0" encoding="UTF-8" standalone="no"?>
<svg
   height="496"
   width="496"
   id="svg4"
   version="1.1"
   viewBox="0 0 496 496"
   sodipodi:docname="vanilla-logo.svg"
   xml:space="preserve"
   inkscape:version="1.3 (0e150ed6c4, 2023-07-21)"
   inkscape:export-filename="vanilla-logo.svg"
   inkscape:export-xdpi="96"
   inkscape:export-ydpi="96"
   xmlns:inkscape="http://www.inkscape.org/namespaces/inkscape"
   xmlns:sodipodi="http://sodipodi.sourceforge.net/DTD/sodipodi-0.dtd"
   xmlns="http://www.w3.org/2000/svg"
   xmlns:svg="http://www.w3.org/2000/svg"
   xmlns:rdf="http://www.w3.org/1999/02/22-rdf-syntax-ns#"
   xmlns:cc="http://creativecommons.org/ns#"
   xmlns:dc="http://purl.org/dc/elements/1.1/"><sodipodi:namedview
     id="namedview1"
     pagecolor="#ffffff"
     bordercolor="#000000"
     borderopacity="0.25"
     inkscape:showpageshadow="2"
     inkscape:pageopacity="0.0"
     inkscape:pagecheckerboard="0"
     inkscape:deskcolor="#d1d1d1"
     inkscape:zoom="1.6935484"
     inkscape:cx="247.70476"
     inkscape:cy="248"
     inkscape:window-width="1920"
     inkscape:window-height="1048"
     inkscape:window-x="0"
     inkscape:window-y="0"
     inkscape:window-maximized="1"
     inkscape:current-layer="svg4" /><metadata
     id="metadata10"><rdf:RDF><cc:Work
         rdf:about=""><dc:format>image/svg+xml</dc:format><dc:type
           rdf:resource="http://purl.org/dc/dcmitype/StillImage" /></cc:Work></rdf:RDF></metadata><defs
     id="defs8"><style
       id="style933">.cls-1{fill:#e9500e;}</style></defs><g
     style="clip-rule:evenodd;fill-rule:evenodd;stroke-linecap:round;stroke-miterlimit:1"
     id="g1"
     transform="matrix(1.4434307,0,0,1.4434307,13.249865,24.105567)"><g
       transform="translate(-146.427,-22.3022)"
       id="g20">&#10;        <g
   transform="matrix(0.91547,-0.0630144,0.0630144,0.91547,15.0287,30.1216)"
   id="g19">&#10;            <g
   transform="translate(0.276988,-1.52894)"
   id="g17">&#10;                <g
   transform="rotate(-0.56642449,584.14753,-3316.3572)"
   id="g4">&#10;                    <path
   d="m 316.082,219.063 c 39.044,8.735 60.6,24.793 65.023,30.373 4.423,5.581 19.103,26.46 25.033,53.28 3.181,14.386 5.156,32.471 5.927,54.256 -10.395,-3.062 -21.194,-4.806 -32.396,-5.231 -36.164,-1.374 -67.701,-7.919 -87.47,-34.919 -13.179,-18 -23.969,-51.425 -32.371,-100.274 21.66,-1.868 40.411,-1.03 56.254,2.515 z"
   style="fill:#fbbd4e;fill-rule:nonzero"
   id="path1" />&#10;                    <clipPath
   id="_clip1">&#10;                        <path
   d="m 316.082,219.063 c 39.044,8.735 60.6,24.793 65.023,30.373 4.423,5.581 19.103,26.46 25.033,53.28 3.181,14.386 5.156,32.471 5.927,54.256 -10.395,-3.062 -21.194,-4.806 -32.396,-5.231 -36.164,-1.374 -67.701,-7.919 -87.47,-34.919 -13.179,-18 -23.969,-51.425 -32.371,-100.274 21.66,-1.868 40.411,-1.03 56.254,2.515 z"
   clip-rule="nonzero"
   id="path2" />&#10;                    </clipPath>&#10;                    <g
   clip-path="url(#_clip1)"
   id="g3">&#10;                        <path
   d="M 380,326 C 331.803,287.134 318.115,266.34 273.5,217.384"
   style="fill:none;stroke:#fddc71;stroke-width:15.26px"
   id="path3" />&#10;                    </g>&#10;                </g>&#10;                <g
   transform="rotate(-8.9633719,334.13305,-87.719538)"
   id="g7">&#10;                    <path
   d="m 289.816,169.32 c 27.112,-29.422 51.805,-40.041 58.851,-41.075 7.045,-1.034 32.468,-3.287 58.653,5.01 14.045,4.45 30.689,11.796 49.932,22.037 -7.855,7.465 -14.772,15.939 -20.749,25.422 -19.298,30.616 -40.754,54.638 -74.024,58.23 -22.18,2.395 -56.516,-5.002 -103.007,-22.189 9.229,-19.685 19.343,-35.496 30.344,-47.435 z"
   style="fill:#fbbd4e;fill-rule:nonzero"
   id="path4" />&#10;                    <clipPath
   id="_clip2">&#10;                        <path
   d="m 289.816,169.32 c 27.112,-29.422 51.805,-40.041 58.851,-41.075 7.045,-1.034 32.468,-3.287 58.653,5.01 14.045,4.45 30.689,11.796 49.932,22.037 -7.855,7.465 -14.772,15.939 -20.749,25.422 -19.298,30.616 -40.754,54.638 -74.024,58.23 -22.18,2.395 -56.516,-5.002 -103.007,-22.189 9.229,-19.685 19.343,-35.496 30.344,-47.435 z"
   clip-rule="nonzero"
   id="path5" />&#10;                    </clipPath>&#10;                    <g
   clip-path="url(#_clip2)"
   id="g6">&#10;                        <path
   d="M 260.776,212.519 C 311.911,192.51 349.097,177.252 409.888,165"
   style="fill:none;stroke:#fddc71;stroke-width:15.26px"
   id="path6" />&#10;                    </g>&#10;                </g>&#10;                <g
   transform="rotate(-8.9633719,313.65901,-92.246594)"
   id="g10">&#10;                    <path
   d="m 233.607,167.149 c -11.892,-38.201 -8.72,-64.893 -6.087,-71.509 2.633,-6.616 13.413,-29.751 33.706,-48.262 10.885,-9.929 25.577,-20.658 44.078,-32.187 2.528,10.537 6.4,20.767 11.615,30.69 16.839,32.035 26.888,62.636 13.339,93.233 -9.033,20.399 -32.628,46.416 -70.785,78.053 -12.419,-17.845 -21.041,-34.517 -25.866,-50.018 z"
   style="fill:#fbbd4e;fill-rule:nonzero"
   id="path7" />&#10;                    <clipPath
   id="_clip3">&#10;                        <path
   d="m 233.607,167.149 c -11.892,-38.201 -8.72,-64.893 -6.087,-71.509 2.633,-6.616 13.413,-29.751 33.706,-48.262 10.885,-9.929 25.577,-20.658 44.078,-32.187 2.528,10.537 6.4,20.767 11.615,30.69 16.839,32.035 26.888,62.636 13.339,93.233 -9.033,20.399 -32.628,46.416 -70.785,78.053 -12.419,-17.845 -21.041,-34.517 -25.866,-50.018 z"
   clip-rule="nonzero"
   id="path8" />&#10;                    </clipPath>&#10;                    <g
   clip-path="url(#_clip3)"
   id="g9">&#10;                        <path
   d="M 259.916,215.675 C 265.752,162.098 273,111.046 291.088,59"
   style="fill:none;stroke:#fddc71;stroke-width:15.26px"
   id="path9" />&#10;                    </g>&#10;                </g>&#10;                <g
   transform="rotate(-8.9633719,328.71664,-85.263521)"
   id="g13">&#10;                    <path
   d="m 203.582,214.717 c -39.022,-8.834 -60.538,-24.946 -64.946,-30.538 -4.409,-5.591 -19.037,-26.507 -24.899,-53.342 -3.145,-14.394 -5.075,-32.484 -5.79,-54.27 10.387,3.088 21.181,4.859 32.382,5.312 36.161,1.465 67.681,8.089 87.382,35.139 13.133,18.033 23.839,51.484 32.118,100.354 -21.665,1.814 -40.414,0.929 -56.247,-2.655 z"
   style="fill:#fbbd4e;fill-rule:nonzero"
   id="path10" />&#10;                    <clipPath
   id="_clip4">&#10;                        <path
   d="m 203.582,214.717 c -39.022,-8.834 -60.538,-24.946 -64.946,-30.538 -4.409,-5.591 -19.037,-26.507 -24.899,-53.342 -3.145,-14.394 -5.075,-32.484 -5.79,-54.27 10.387,3.088 21.181,4.859 32.382,5.312 36.161,1.465 67.681,8.089 87.382,35.139 13.133,18.033 23.839,51.484 32.118,100.354 -21.665,1.814 -40.414,0.929 -56.247,-2.655 z"
   clip-rule="nonzero"
   id="path11" />&#10;                    </clipPath>&#10;                    <g
   clip-path="url(#_clip4)"
   id="g12">&#10;                        <path
   d="m 141,110 c 38.372,39.706 71.972,71.653 118.39,103.002"
   style="fill:none;stroke:#fddc71;stroke-width:15.26px"
   id="path12" />&#10;                    </g>&#10;                </g>&#10;                <g
   transform="rotate(-13.324917,324.36699,-22.333272)"
   id="g16">&#10;                    <path
   d="m 229.723,264.525 c -27.186,29.354 -51.906,39.911 -58.954,40.927 -7.048,1.016 -32.477,3.205 -58.641,-5.157 -14.034,-4.486 -30.659,-11.874 -49.876,-22.163 7.874,-7.445 14.812,-15.902 20.813,-25.37 19.375,-30.568 40.891,-54.535 74.171,-58.044 22.186,-2.339 56.503,5.144 102.95,22.449 -9.278,19.661 -19.432,35.447 -30.463,47.358 z"
   style="fill:#fbbd4e;fill-rule:nonzero"
   id="path13" />&#10;                    <clipPath
   id="_clip5">&#10;                        <path
   d="m 229.723,264.525 c -27.186,29.354 -51.906,39.911 -58.954,40.927 -7.048,1.016 -32.477,3.205 -58.641,-5.157 -14.034,-4.486 -30.659,-11.874 -49.876,-22.163 7.874,-7.445 14.812,-15.902 20.813,-25.37 19.375,-30.568 40.891,-54.535 74.171,-58.044 22.186,-2.339 56.503,5.144 102.95,22.449 -9.278,19.661 -19.432,35.447 -30.463,47.358 z"
   clip-rule="nonzero"
   id="path14" />&#10;                    </clipPath>&#10;                    <g
   clip-path="url(#_clip5)"
   id="g15">&#10;                        <path
   d="m 105.533,267.72 c 58.955,-13.16 94.6,-30.697 147.429,-57.639"
   style="fill:none;stroke:#fddc71;stroke-width:15.26px"
   id="path15" />&#10;                    </g>&#10;                </g>&#10;            </g>&#10;            <g
   transform="matrix(0.972408,-0.233289,0.233289,0.972408,7.17955,78.1919)"
   id="g18">&#10;                <path
   d="m 310.717,217.052 c -2.491,9.297 -16.345,5.643 -19.955,16.819 -3.137,9.714 -7.74,17.682 -17.036,20.173 -9.297,2.491 -17.619,-5.822 -26.496,-8.2 -8.877,-2.379 -17.23,1.465 -24.035,-5.34 -6.806,-6.805 -4.785,-13.64 -7.164,-22.518 -2.379,-8.877 -9.787,-17.133 -7.296,-26.429 2.491,-9.296 12.999,-10.815 19.498,-17.314 6.498,-6.498 9.117,-18.77 18.413,-21.261 9.297,-2.491 15.891,6.134 24.769,8.513 8.877,2.378 20.347,-0.772 27.152,6.033 6.806,6.806 1.975,17.247 4.354,26.124 2.379,8.877 10.287,14.104 7.796,23.4 z"
   style="fill:#fddc71;fill-rule:nonzero"
   id="path17" />&#10;                <path
   d="m 288.281,233.884 c -6.153,6.243 -16.959,-5.301 -23.175,-0.427 -6.353,4.981 -9.36,12.515 -17.175,9.572 -7.123,-2.683 -0.863,-14.896 -5.798,-20.231 -4.936,-5.336 -21.024,-0.895 -21.928,-9.84 -0.94,-9.307 13.399,-5.066 16.014,-14.086 2.615,-9.022 -11.446,-18.962 -5.858,-24.131 5.587,-5.168 16.568,5.724 23.657,4.118 7.089,-1.607 12.702,-16.533 19.972,-14.278 7.27,2.255 0.726,17.208 5.661,22.544 4.936,5.335 21.399,2.097 23.082,9.52 1.682,7.424 -19.172,6.538 -21.325,13.481 -2.153,6.942 12.216,18.337 6.873,23.758 z"
   style="fill:#feeed1;fill-rule:nonzero"
   id="path18" />&#10;            </g>&#10;        </g>&#10;    </g></g></svg>
