<?xml version="1.0" encoding="UTF-8"?>
<svg xmlns="http://www.w3.org/2000/svg" xmlns:xlink="http://www.w3.org/1999/xlink" width="496" height="496" viewBox="0 0 496 496" version="1.1">
<defs>
<linearGradient id="linear0" gradientUnits="userSpaceOnUse" x1="50" y1="50" x2="550" y2="550" gradientTransform="matrix(0.918519,0,0,0.918519,-27.555556,-27.555556)">
<stop offset="0.0684898" style="stop-color:rgb(0%,27.843139%,67.058825%);stop-opacity:1;"/>
<stop offset="0.741212" style="stop-color:rgb(54.11765%,16.862746%,88.627452%);stop-opacity:1;"/>
</linearGradient>
</defs>
<g id="surface1">
<path style=" stroke:none;fill-rule:nonzero;fill:url(#linear0);" d="M 18.371094 110.222656 C 18.371094 59.492188 59.492188 18.371094 110.222656 18.371094 L 248 18.371094 C 374.820312 18.371094 477.628906 121.179688 477.628906 248 C 477.628906 374.820312 374.820312 477.628906 248 477.628906 C 121.179688 477.628906 18.371094 374.820312 18.371094 248 Z M 18.371094 110.222656 "/>
<path style=" stroke:none;fill-rule:evenodd;fill:rgb(100%,100%,100%);fill-opacity:0.501961;" d="M 135.941406 18.371094 L 194.726562 18.371094 L 194.726562 135.941406 L 317.976562 135.941406 C 369.625 135.941406 411.496094 177.808594 411.496094 229.460938 C 411.496094 329.996094 329.996094 411.496094 229.460938 411.496094 C 177.808594 411.496094 135.941406 369.625 135.941406 317.976562 L 135.941406 194.726562 L 18.371094 194.726562 L 18.371094 135.941406 L 135.941406 135.941406 Z M 194.726562 194.726562 L 194.726562 317.976562 C 194.726562 337.160156 210.277344 352.710938 229.460938 352.710938 C 297.527344 352.710938 352.710938 297.527344 352.710938 229.460938 C 352.710938 210.277344 337.160156 194.726562 317.976562 194.726562 Z M 194.726562 194.726562 "/>
<path style=" stroke:none;fill-rule:nonzero;fill:rgb(100%,100%,100%);fill-opacity:0.698039;" d="M 194.726562 73.480469 C 194.726562 58.261719 182.390625 45.925781 167.171875 45.925781 L 163.496094 45.925781 C 148.277344 45.925781 135.941406 58.261719 135.941406 73.480469 L 135.941406 135.941406 L 73.480469 135.941406 C 58.261719 135.941406 45.925781 148.277344 45.925781 163.496094 L 45.925781 167.171875 C 45.925781 182.390625 58.261719 194.726562 73.480469 194.726562 L 135.941406 194.726562 L 135.941406 257.183594 C 135.941406 272.402344 148.277344 284.742188 163.496094 284.742188 L 167.171875 284.742188 C 182.390625 284.742188 194.726562 272.402344 194.726562 257.183594 L 194.726562 194.726562 L 257.183594 194.726562 C 272.402344 194.726562 284.742188 182.390625 284.742188 167.171875 L 284.742188 163.496094 C 284.742188 148.277344 272.402344 135.941406 257.183594 135.941406 L 194.726562 135.941406 Z M 194.726562 73.480469 "/>
<path style=" stroke:none;fill-rule:nonzero;fill:rgb(100%,100%,100%);fill-opacity:1;" d="M 259.480469 161.355469 C 262.542969 163.125 262.542969 167.542969 259.480469 169.308594 L 240.191406 180.445312 C 237.132812 182.214844 233.304688 180.003906 233.304688 176.46875 L 233.304688 154.195312 C 233.304688 150.660156 237.132812 148.453125 240.191406 150.21875 Z M 259.480469 161.355469 "/>
<path style=" stroke:none;fill-rule:nonzero;fill:rgb(100%,100%,100%);fill-opacity:1;" d="M 169.308594 259.480469 C 167.542969 262.542969 163.125 262.542969 161.355469 259.480469 L 150.21875 240.191406 C 148.453125 237.132812 150.660156 233.304688 154.195312 233.304688 L 176.46875 233.304688 C 180.003906 233.304688 182.214844 237.132812 180.445312 240.191406 Z M 169.308594 259.480469 "/>
<path style=" stroke:none;fill-rule:nonzero;fill:rgb(100%,100%,100%);fill-opacity:1;" d="M 161.355469 71.183594 C 163.125 68.125 167.542969 68.125 169.308594 71.183594 L 180.445312 90.472656 C 182.214844 93.535156 180.003906 97.363281 176.46875 97.363281 L 154.195312 97.363281 C 150.660156 97.363281 148.453125 93.535156 150.21875 90.472656 Z M 161.355469 71.183594 "/>
<path style=" stroke:none;fill-rule:nonzero;fill:rgb(100%,100%,100%);fill-opacity:1;" d="M 71.183594 169.308594 C 68.125 167.542969 68.125 163.125 71.183594 161.355469 L 90.472656 150.21875 C 93.535156 148.453125 97.363281 150.660156 97.363281 154.195312 L 97.363281 176.46875 C 97.363281 180.003906 93.535156 182.214844 90.472656 180.445312 Z M 71.183594 169.308594 "/>
</g>
</svg>
