<?xml version="1.0" encoding="UTF-8" standalone="no"?>
<svg
   id="svg8"
   version="1.1"
   height="496"
   width="496"
   sodipodi:docname="cachyos-logo (Kopie).svg"
   inkscape:version="1.4.2 (ebf0e940d0, 2025-05-08)"
   xmlns:inkscape="http://www.inkscape.org/namespaces/inkscape"
   xmlns:sodipodi="http://sodipodi.sourceforge.net/DTD/sodipodi-0.dtd"
   xmlns:xlink="http://www.w3.org/1999/xlink"
   xmlns="http://www.w3.org/2000/svg"
   xmlns:svg="http://www.w3.org/2000/svg"
   xmlns:rdf="http://www.w3.org/1999/02/22-rdf-syntax-ns#"
   xmlns:cc="http://creativecommons.org/ns#"
   xmlns:dc="http://purl.org/dc/elements/1.1/">
  <sodipodi:namedview
     id="namedview1"
     pagecolor="#ffffff"
     bordercolor="#000000"
     borderopacity="0.25"
     inkscape:showpageshadow="2"
     inkscape:pageopacity="0.0"
     inkscape:pagecheckerboard="0"
     inkscape:deskcolor="#d1d1d1"
     inkscape:zoom="0.75285206"
     inkscape:cx="191.93678"
     inkscape:cy="34.535338"
     inkscape:window-width="1012"
     inkscape:window-height="1189"
     inkscape:window-x="26"
     inkscape:window-y="23"
     inkscape:window-maximized="0"
     inkscape:current-layer="svg8" />
  <metadata
     id="metadata14">
    <rdf:RDF>
      <cc:Work
         rdf:about="">
        <dc:format>image/svg+xml</dc:format>
        <dc:type
           rdf:resource="http://purl.org/dc/dcmitype/StillImage" />
        <dc:title />
      </cc:Work>
    </rdf:RDF>
  </metadata>
  <defs
     id="defs12">
    <linearGradient
       id="linearGradient939"
       x1="237.19"
       x2="237.07001"
       y1="296.20001"
       y2="304.07999"
       gradientTransform="matrix(1.2388407,0,0,1.2365989,-238.15848,-124.39279)"
       gradientUnits="userSpaceOnUse"
       xlink:href="#linearGradient937" />
    <linearGradient
       id="linearGradient937">
      <stop
         stop-color="#001313"
         offset="0"
         id="stop1" />
      <stop
         stop-color="#001313"
         stop-opacity="0"
         offset="1"
         id="stop2" />
    </linearGradient>
    <linearGradient
       id="linearGradient5185"
       x1="994.81"
       x2="982.34003"
       y1="1533.3"
       y2="1556.8"
       gradientTransform="matrix(2.3288046,0,0,2.3245977,-2112.99,-3502.1379)"
       gradientUnits="userSpaceOnUse"
       xlink:href="#linearGradient4353" />
    <linearGradient
       id="linearGradient4353">
      <stop
         stop-color="#020202"
         offset="0"
         id="stop3" />
      <stop
         stop-color="#020202"
         stop-opacity="0"
         offset="1"
         id="stop4" />
    </linearGradient>
    <linearGradient
       id="linearGradient9102"
       x1="1022.5"
       x2="1018.6"
       y1="1582.4"
       y2="1575.6"
       gradientTransform="matrix(2.390802,0,0,2.2642332,-2192.1751,-3455.0863)"
       gradientUnits="userSpaceOnUse"
       xlink:href="#linearGradient4353" />
    <linearGradient
       id="linearGradient11890"
       x1="940.42999"
       x2="930.59003"
       y1="1612.5"
       y2="1594.5"
       gradientTransform="matrix(2.3288046,0,0,2.3245977,-2112.99,-3502.1379)"
       gradientUnits="userSpaceOnUse"
       xlink:href="#linearGradient4353" />
    <linearGradient
       id="linearGradient11670"
       x1="965.59998"
       x2="951.65997"
       y1="1571.4"
       y2="1571.3"
       gradientTransform="matrix(2.3288046,0,0,2.3245977,-2112.99,-3502.1379)"
       gradientUnits="userSpaceOnUse"
       xlink:href="#linearGradient4353" />
    <linearGradient
       id="linearGradient13770"
       x1="946.22998"
       x2="961.37"
       y1="1655.9"
       y2="1655.8"
       gradientTransform="matrix(2.3288046,0,0,2.3245977,-2112.99,-3502.1379)"
       gradientUnits="userSpaceOnUse"
       xlink:href="#linearGradient4353" />
    <linearGradient
       id="linearGradient2816"
       x1="366.14999"
       x2="350.92001"
       y1="427.32001"
       y2="419.64001"
       gradientTransform="matrix(1.2388407,0,0,1.2365989,-302.6108,-118.98741)"
       gradientUnits="userSpaceOnUse"
       xlink:href="#linearGradient937" />
    <linearGradient
       id="linearGradient12421"
       x1="936.34003"
       x2="933.38"
       y1="1628.8"
       y2="1623"
       gradientTransform="matrix(2.3288046,0,0,2.3245977,-2112.99,-3502.1379)"
       gradientUnits="userSpaceOnUse"
       xlink:href="#linearGradient4353" />
    <linearGradient
       id="linearGradient13391"
       x1="950.33002"
       x2="941.96997"
       y1="1618.6"
       y2="1645.8"
       gradientTransform="matrix(2.3288046,0,0,2.3245977,-2112.99,-3502.1379)"
       gradientUnits="userSpaceOnUse"
       xlink:href="#linearGradient4353" />
    <linearGradient
       id="linearGradient13599"
       x1="1008.2"
       x2="1015.7"
       y1="1681.3"
       y2="1668.4"
       gradientTransform="matrix(2.3288046,0,0,2.3245977,-2112.99,-3502.1379)"
       gradientUnits="userSpaceOnUse"
       xlink:href="#linearGradient4353" />
    <linearGradient
       id="linearGradient18175"
       x1="1148.3"
       x2="1145.4"
       y1="1585.5"
       y2="1630"
       gradientTransform="matrix(1.4235802,0,0,1.4209653,-1174.6051,-2004.624)"
       gradientUnits="userSpaceOnUse"
       xlink:href="#linearGradient18299" />
    <linearGradient
       id="linearGradient18299">
      <stop
         stop-color="#008066"
         stop-opacity="0"
         offset="0"
         id="stop21" />
      <stop
         stop-color="#0fc"
         offset="1"
         id="stop22" />
    </linearGradient>
    <linearGradient
       id="linearGradient18632"
       x1="1148.3"
       x2="1145.4"
       y1="1585.5"
       y2="1630"
       gradientTransform="matrix(1.0807444,0,0,1.0787593,-864.91886,-1541.7894)"
       gradientUnits="userSpaceOnUse"
       xlink:href="#linearGradient18299" />
    <linearGradient
       id="linearGradient18659"
       x1="1148.3"
       x2="1145.4"
       y1="1585.5"
       y2="1630"
       gradientTransform="matrix(0.55650303,0,0,0.55548081,-223.22385,-797.25166)"
       gradientUnits="userSpaceOnUse"
       xlink:href="#linearGradient18299" />
    <linearGradient
       id="linearGradient3254"
       x1="348.04999"
       x2="361.20999"
       y1="194.78"
       y2="187.24001"
       gradientTransform="matrix(1.2388407,0,0,1.2365989,-302.6108,-118.98741)"
       gradientUnits="userSpaceOnUse"
       xlink:href="#linearGradient937" />
  </defs>
  <path
     id="path6"
     style="stroke-width:27.6774;fill:#cccccc"
     d="M 109.61719 56.050781 L 0 245.57031 L 114.49805 443.5332 L 114.50391 443.5332 L 114.49805 443.54297 L 351.82422 443.54297 L 411.78516 339.87305 L 411.78125 339.87305 L 411.78516 339.86523 L 167.43164 339.86523 L 114.50977 248.36328 L 166.70703 158.12109 L 291.97461 158.12109 L 350.44922 57.021484 L 109.61719 56.050781 z M 414.21484 87.599609 A 15.409507 15.381202 0 0 0 398.80469 102.98047 A 15.409507 15.381202 0 0 0 414.21484 118.36328 A 15.409507 15.381202 0 0 0 429.62305 102.98047 A 15.409507 15.381202 0 0 0 414.21484 87.599609 z M 373.01758 176.66797 A 29.926022 29.871052 0 0 0 343.08984 206.53906 A 29.926022 29.871052 0 0 0 373.01758 236.41016 A 29.926022 29.871052 0 0 0 402.94336 206.53906 A 29.926022 29.871052 0 0 0 373.01758 176.66797 z " />
  <ellipse
     cx="456.05173"
     cy="298.31686"
     fill="#00ccff"
     id="circle25"
     rx="39.419403"
     ry="39.346996"
     style="stroke-width:4.06456;fill:#cccccc" />
  <path
     style="fill:#cccccc;stroke-width:1.08961"
     d="M 58.293948,345.24452 C 27.131202,291.27089 1.5277793,246.54949 1.3974531,245.86365 1.2671271,245.17781 25.589972,202.44889 55.448222,150.9105 L 109.73595,57.204342 228.832,57.466927 c 65.50282,0.144422 119.28826,0.4548 119.52319,0.689729 0.23493,0.234929 -12.4682,22.78014 -28.22916,50.100464 l -28.65629,49.67333 -62.7381,0.0312 -62.73812,0.0312 -25.88862,44.79195 c -14.97281,25.90565 -25.67281,45.54615 -25.37679,46.58068 0.28151,0.98381 12.02911,21.64681 26.10575,45.91779 l 25.59392,44.12907 122.10847,0.5448 122.10847,0.5448 -29.62331,51.43669 -29.62331,51.43668 -118.22231,0.002 -118.2223,10e-4 z"
     id="path1" />
  <path
     style="fill:#cccccc;stroke-width:1.08961"
     d="M 58.293948,345.27412 C 27.131202,291.30548 1.5242801,246.57947 1.3896771,245.88299 1.255074,245.1865 25.568851,202.44889 55.420293,150.9105 l 54.275357,-93.706158 119.11619,0.262585 c 65.51391,0.144422 119.3092,0.455587 119.5451,0.691477 0.23589,0.235891 -12.46723,22.784404 -28.22915,50.107806 l -28.65805,49.67891 -62.72143,0.0239 -62.72142,0.0239 -22.10786,38.24684 c -12.15932,21.03576 -23.8417,41.50674 -25.96087,45.49107 l -3.853,7.24424 26.16094,45.21867 26.16094,45.21867 122.1303,0.5448 122.1303,0.5448 -29.64477,51.44525 -29.64477,51.44525 -118.22231,0.003 -118.2223,0.003 z"
     id="path2" />
  <path
     style="fill:#cccccc;stroke-width:1.08961"
     d="M 58.293948,345.28598 C 27.131202,291.3075 1.4781222,246.71884 1.287104,246.20007 1.0960859,245.68129 19.444635,213.24181 42.061657,174.11233 64.678681,134.98285 89.132797,92.671034 96.404139,80.086078 L 109.62476,57.204342 228.7764,57.466927 c 65.53341,0.144422 119.34523,0.456167 119.58183,0.692768 0.2366,0.236601 -12.46652,22.792253 -28.22916,50.123675 l -28.65933,49.69349 -62.69135,0.008 -62.69136,0.008 -22.48032,38.95344 c -12.36418,21.42438 -24.05674,41.89537 -25.98347,45.49107 l -3.50314,6.53764 26.1693,45.21867 26.16929,45.21867 122.12313,0.5448 122.12313,0.5448 -29.65343,51.46227 -29.65342,51.46226 -118.22231,10e-4 -118.2223,10e-4 z"
     id="path3" />
</svg>
