<?xml version="1.0" encoding="UTF-8" standalone="no"?>
<svg
   height="496"
   width="496"
   id="svg4"
   version="1.1"
   viewBox="0 0 496 496"
   xml:space="preserve"
   xmlns="http://www.w3.org/2000/svg"
   xmlns:svg="http://www.w3.org/2000/svg"
   xmlns:rdf="http://www.w3.org/1999/02/22-rdf-syntax-ns#"
   xmlns:cc="http://creativecommons.org/ns#"
   xmlns:dc="http://purl.org/dc/elements/1.1/"><metadata
     id="metadata10"><rdf:RDF><cc:Work
         rdf:about=""><dc:format>image/svg+xml</dc:format><dc:type
           rdf:resource="http://purl.org/dc/dcmitype/StillImage" /><dc:title /></cc:Work></rdf:RDF></metadata><defs
     id="defs8" /><g
     id="g902"
     transform="matrix(12.281385,0,0,12.281123,-4517.7582,3103.9311)"
     style="display:inline"><ellipse
       style="fill:#a14f8c;fill-opacity:1;stroke:none;stroke-width:1.32292;stroke-linecap:round;stroke-miterlimit:4;stroke-dasharray:none;stroke-opacity:1;paint-order:fill markers stroke;stop-color:#000000"
       id="ellipse894"
       cx="435.07938"
       cy="-124.14428"
       rx="20.103001"
       ry="20.103493"
       transform="rotate(-15)" /><g
       id="g907"
       transform="matrix(1.1500001,0,0,1.1500001,-53.772279,39.324566)"><path
         id="path896"
         style="fill:#ffffff;fill-opacity:1;stroke-width:7.93746;stroke-linecap:round;paint-order:fill markers stroke;stop-color:#000000"
         d="m 384.25717,-249.61659 -3.87493,3.87494 -5.47925,-4.5e-4 -4.5e-4,5.47974 -3.87454,3.87494 3.87454,3.87454 2e-4,5.47989 5.4795,-2e-4 3.87493,3.87493 3.87454,-3.87493 5.47994,-2.5e-4 -2.5e-4,-5.47944 3.87494,-3.87454 -3.87532,-3.87456 -5.47949,-5.47949 z m 1.17607,3.87454 v 4.18045 l -1.17607,1.17608 -1.17607,-1.17608 v -4.18005 z m -6.95928,1.90827 2.95599,2.95639 4.4e-4,1.66269 -1.66359,4.5e-4 -2.95599,-2.95639 z m -3.57142,6.27028 h 4.18045 l 1.17608,1.17608 -1.17608,1.17607 h -4.18045 z m 14.43444,0 h 4.18045 v 2.35215 h -4.18045 l -1.17608,-1.17607 z m -9.50341,3.93651 1.66316,1e-5 v 1.66314 l -2.95599,2.956 -1.66315,-1.66316 z m 7.18429,-2.3e-4 1.6629,2.4e-4 2.95599,2.95599 -1.66314,1.66314 -2.95599,-2.95599 z m -2.76069,1.14353 1.17607,1.17607 v 4.18046 h -2.35214 v -4.18046 z" /><path
         id="path898"
         style="fill:#efa724;fill-opacity:1;stroke-width:8.59212;stroke-linecap:round;paint-order:fill markers stroke;stop-color:#000000"
         d="m 385.43324,-239.08983 -1.17607,1.03926 -1.17607,-1.03961 v 1.52668 h -1.52649 l 1.03941,1.17607 -1.03964,1.17608 h 1.52672 v 1.5264 l 1.17607,-1.03934 1.17607,1.03947 v -1.52653 h 1.52628 l -1.03921,-1.17604 1.0396,-1.17611 h -1.52667 z" /><path
         id="path900"
         style="fill:#efa724;fill-opacity:1;stroke-width:6.14231;stroke-linecap:round;paint-order:fill markers stroke;stop-color:#000000"
         d="m 388.13486,-245.73814 1.90493,1.90493 -2.95599,2.95599 7e-5,1.6631 1.66309,5e-5 2.95598,-2.95598 1.91153,1.91153 -0.003,-5.48309 z" /></g></g></svg>
