<?xml version="1.0" encoding="UTF-8" standalone="no"?>
<svg
   id="svg8"
   version="1.1"
   viewBox="0 0 496 496"
   height="496"
   width="496"
   xmlns="http://www.w3.org/2000/svg"
   xmlns:svg="http://www.w3.org/2000/svg"
   xmlns:rdf="http://www.w3.org/1999/02/22-rdf-syntax-ns#"
   xmlns:cc="http://creativecommons.org/ns#"
   xmlns:dc="http://purl.org/dc/elements/1.1/">
  <defs
     id="defs2" />
  <metadata
     id="metadata5">
    <rdf:RDF>
      <cc:Work
         rdf:about="">
        <dc:format>image/svg+xml</dc:format>
        <dc:type
           rdf:resource="http://purl.org/dc/dcmitype/StillImage" />
        <cc:license
           rdf:resource="http://creativecommons.org/licenses/by-sa/4.0/" />
      </cc:Work>
      <cc:License
         rdf:about="http://creativecommons.org/licenses/by-sa/4.0/">
        <cc:permits
           rdf:resource="http://creativecommons.org/ns#Reproduction" />
        <cc:permits
           rdf:resource="http://creativecommons.org/ns#Distribution" />
        <cc:requires
           rdf:resource="http://creativecommons.org/ns#Notice" />
        <cc:requires
           rdf:resource="http://creativecommons.org/ns#Attribution" />
        <cc:permits
           rdf:resource="http://creativecommons.org/ns#DerivativeWorks" />
        <cc:requires
           rdf:resource="http://creativecommons.org/ns#ShareAlike" />
      </cc:License>
    </rdf:RDF>
  </metadata>
  <g
     id="layer1"
     transform="matrix(2.497971,0,0,2.497971,-5723.5418,-125.61843)">
    <g
       transform="matrix(0.4436889,0,0,0.4436889,2965.7337,-7.469143)"
       id="g2041"
       style="fill:#ffffff;stroke-width:2.25383"
       class="logofill">
      <g
         transform="matrix(3.6654483,0,0,3.6654483,-775.24519,138.17095)"
         style="fill:#ffffff;fill-opacity:1;fill-rule:nonzero;stroke:none;stroke-width:1.79233;stroke-miterlimit:4"
         id="g2021" />
      <g
         transform="matrix(3.6654483,0,0,3.6654483,-1473.9329,138.17095)"
         style="fill:#4a86cf;fill-opacity:1;fill-rule:nonzero;stroke:none;stroke-width:1.79233;stroke-miterlimit:4"
         id="g2055">
        <g
           style="fill:#4a86cf;fill-opacity:1;stroke-width:1.79233"
           id="g2053">
          <path
             d="M 86.068,0 C 61.466,0 56.851,35.041 70.691,35.041 84.529,35.041 110.671,0 86.068,0 Z"
             style="fill:#4a86cf;fill-opacity:1;stroke-width:1.79233"
             id="path2043" />
          <path
             d="M 45.217,30.699 C 52.586,31.149 60.671,2.577 46.821,4.374 32.976,6.171 37.845,30.249 45.217,30.699 Z"
             style="fill:#4a86cf;fill-opacity:1;stroke-width:1.79233"
             id="path2045" />
          <path
             d="M 11.445,48.453 C 16.686,46.146 12.12,23.581 3.208,29.735 -5.7,35.89 6.204,50.759 11.445,48.453 Z"
             style="fill:#4a86cf;fill-opacity:1;stroke-width:1.79233"
             id="path2047" />
          <path
             d="M 26.212,36.642 C 32.451,35.37 32.793,9.778 21.667,14.369 10.539,18.961 19.978,37.916 26.212,36.642 Z"
             style="fill:#4a86cf;fill-opacity:1;stroke-width:1.79233"
             id="path2049" />
          <path
             d="m 58.791,93.913 c 1.107,8.454 -6.202,12.629 -13.36,7.179 C 22.644,83.743 83.16,75.088 79.171,51.386 75.86,31.712 15.495,37.769 8.621,68.553 3.968,89.374 27.774,118.26 52.614,118.26 c 12.22,0 26.315,-11.034 28.952,-25.012 C 83.58,82.589 57.867,86.86 58.791,93.913 Z"
             style="fill:#4a86cf;fill-opacity:1;stroke-width:1.79233"
             id="path2051" />
        </g>
      </g>
    </g>
  </g>
</svg>
