<?xml version="1.0" encoding="UTF-8" standalone="no"?>
<svg
   width="496"
   height="496"
   id="svg2951"
   version="1.1"
   xmlns="http://www.w3.org/2000/svg"
   xmlns:svg="http://www.w3.org/2000/svg"
   xmlns:rdf="http://www.w3.org/1999/02/22-rdf-syntax-ns#"
   xmlns:cc="http://creativecommons.org/ns#"
   xmlns:dc="http://purl.org/dc/elements/1.1/">
  <metadata
     id="metadata2956">
    <rdf:RDF>
      <cc:Work
         rdf:about="">
        <dc:format>image/svg+xml</dc:format>
        <dc:type
           rdf:resource="http://purl.org/dc/dcmitype/StillImage" />
      </cc:Work>
    </rdf:RDF>
  </metadata>
  <g
     id="layer1"
     transform="translate(-373.71429,-334.64487)">
    <path
       d="m 508.01955,445.12312 c 0,7.39385 -3.88782,13.87954 -9.73369,17.5222 -3.16289,1.97619 -6.90102,3.11647 -10.90497,3.11647 -11.39765,0 -20.63865,-9.24088 -20.63865,-20.63867 0,-11.39765 9.241,-20.63865 20.63865,-20.63865 4.00395,0 7.74208,1.14028 10.90497,3.11648 5.84587,3.64264 9.73369,10.12836 9.73369,17.52217 z"
       id="path1719"
       style="fill:#cccccc;fill-opacity:1;stroke-width:0.257983;"
       transform="matrix(2.2969998,0,0,2.2969998,-497.97909,-443.06706)" />
    <path
       d="m 441.91906,533.16773 c -0.2841,0.48792 -0.57737,0.96533 -0.89038,1.43446 -0.33275,0.50767 -0.68127,1.00612 -1.04691,1.49366 0.31172,-0.53924 0.64314,-1.06531 0.98773,-1.58139 0.30511,-0.45899 0.62209,-0.90877 0.94956,-1.34673 z"
       id="path1721"
       style="stroke-width:0.257983;"
       transform="matrix(2.2969998,0,0,2.2969998,-497.97909,-443.06706)" />
    <path
       d="m 441.91906,533.16773 c -0.2841,0.48792 -0.57737,0.96533 -0.89038,1.43446 -0.0263,-0.0263 -0.0396,-0.0658 -0.0658,-0.0921 0.30513,-0.45899 0.62209,-0.90745 0.94957,-1.3466 z"
       id="path1723"
       style="stroke-width:0.257983;"
       transform="matrix(2.2969998,0,0,2.2969998,-497.97909,-443.06706)" />
    <path
       d="m 441.91906,533.16773 c -0.2841,0.48792 -0.57737,0.96533 -0.89038,1.43446 -0.33275,0.50767 -0.68127,1.00612 -1.04691,1.49366 0.31172,-0.53924 0.64314,-1.06531 0.98773,-1.58139 0.30511,-0.45899 0.62209,-0.90877 0.94956,-1.34673 z"
       id="path1725"
       style="stroke-width:0.257983;"
       transform="matrix(2.2969998,0,0,2.2969998,-497.97909,-443.06706)" />
    <path
       d="m 590.57429,445.12312 v 72.23544 c 0,0.0395 0,0.092 -0.003,0.13156 -0.0658,17.03716 -13.90281,30.82896 -30.95548,30.82896 h -4.01683 c -15.20038,-1.97094 -26.94129,-14.96561 -26.94129,-30.70007 v -63.647 l 30.95812,-8.84634 -31.97449,-9.13514 c -4.15611,-18.40203 -20.60262,-32.14217 -40.26093,-32.14217 -22.79805,0 -41.27731,18.47926 -41.27731,41.27731 v 20.63866 c 0,11.39777 9.24088,20.63866 20.63865,20.63866 17.0966,0 30.95798,13.86151 30.95798,30.95811 v 34.31183 c 0,-6.34642 -1.90912,-12.2466 -5.18551,-17.15591 -5.54916,-8.31998 -15.01979,-13.8022 -25.77247,-13.8022 -10.1594,0 -19.17853,4.89394 -24.82317,12.45546 -0.32748,0.43794 -0.64445,0.88775 -0.94957,1.34674 -0.34591,0.51556 -0.67601,1.04163 -0.98771,1.58137 -4.88353,6.55791 -12.30828,11.11661 -20.81923,12.22069 h -4.01683 c -17.05267,0 -30.88828,-13.7918 -30.95536,-30.82896 -0.002,-0.0395 -0.002,-0.0919 -0.002,-0.13156 V 372.8877 c -7e-4,-17.09646 13.86081,-30.95797 30.95728,-30.95797 9.85506,0 18.63681,4.60499 24.30474,11.78207 14.32197,-7.52534 30.62904,-11.78207 47.93202,-11.78207 56.99112,0 103.19339,46.20227 103.19339,103.19339 z"
       id="path1727"
       style="fill:#cccccc;fill-opacity:1;stroke-width:0.25799202;stroke-dasharray:none"
       transform="matrix(2.2016185,0,0,2.2016185,-450.94333,-398.52814)" />
    <line
       fill="none"
       x1="497.7002"
       y1="552.35913"
       x2="497.7002"
       y2="551.67023"
       id="line1729"
       style="stroke-width:0.257983;"
       transform="matrix(2.2969998,0,0,2.2969998,-497.97909,-443.06706)" />
  </g>
</svg>
