<?xml version="1.0" encoding="UTF-8" standalone="no"?>
<svg
   id="svg"
   version="1.1"
   width="400"
   height="400"
   viewBox="0, 0, 400,400"
   sodipodi:docname="shastra.svg"
   inkscape:version="1.1.2 (0a00cf5, 2022-02-04)"
   inkscape:export-filename="shastrav.png"
   inkscape:export-xdpi="3.8399999"
   inkscape:export-ydpi="3.8399999"
   xmlns:inkscape="http://www.inkscape.org/namespaces/inkscape"
   xmlns:sodipodi="http://sodipodi.sourceforge.net/DTD/sodipodi-0.dtd"
   xmlns="http://www.w3.org/2000/svg"
   xmlns:svg="http://www.w3.org/2000/svg">
  <defs
     id="defs71" />
  <sodipodi:namedview
     id="namedview69"
     pagecolor="#505050"
     bordercolor="#eeeeee"
     borderopacity="1"
     inkscape:pageshadow="0"
     inkscape:pageopacity="0"
     inkscape:pagecheckerboard="0"
     showgrid="false"
     inkscape:zoom="1"
     inkscape:cx="71.999998"
     inkscape:cy="142"
     inkscape:window-width="1920"
     inkscape:window-height="1010"
     inkscape:window-x="0"
     inkscape:window-y="38"
     inkscape:window-maximized="1"
     inkscape:current-layer="svgg" />
  <g
     id="svgg">
    <path
       id="path0"
       d="m 241.8,34.228 c -9.01304,1.68613 -12.44364,3.149233 -19.64622,5.836453 -3.69452,1.512663 -4.33816,1.928858 -8.05378,3.668547 -5.84138,2.47795 -6.93947,3.159395 -11.256,5.855 -1.406,1.133 -4.01,2.79 -5.787,3.684 -3.328,1.673 -7.97,4.998 -11.896,8.52 -1.231,1.104 -3.577,3.199 -5.212,4.654 -5.576,4.962 -15.019,18.188 -16.562,23.196 -0.569,1.847 -1.556,4.618 -2.193,6.158 -1.219,2.949 -4.006,11.448 -4.835,14.747 -0.899,3.577 -2.829,5.108 -7.395,5.866 -2.776,0.462 -11.39608,4.03056 -16.01108,6.75956 -3.509,1.767 -2.58292,1.56644 -3.35292,1.85144 -0.77,0.286 -1.156,0.532 -0.858,0.548 0.297,0.015 2.997,-0.951 6,-2.148 10.396,-4.144 13.58414,-3.63707 22.43714,-3.41507 1.32,0.034 2.93364,-0.52375 3.48364,-0.53475 0.55,-0.01 2.93722,-0.21618 5.13722,0.30482 2.2,0.52 2.86673,1.74831 3.82973,1.90331 1.278,0.205 0.64902,0.75529 0.24602,1.03229 -0.371,0.256 0.98845,-0.19439 1.92945,-0.36139 0.962,-0.171 1.326,0.32591 0.938,0.59192 -0.408,0.28 -0.81286,2.06231 0.83614,2.26831 4.349,0.544 4.80681,-0.35713 1.15081,1.97287 -1.264,0.805 -0.46818,1.23192 -0.82018,1.76792 -0.726,1.108 -1.74613,7.02598 -0.73937,5.53524 0,0 0.25236,-1.014 0.25536,-1.52 0.171,-3.883 2.00704,-3.79247 8.07404,-5.55447 3.638,-1.056 5.932,-1.457 17.1,-2.988 3.08,-0.422 9.56,-1.757 14.4,-2.967 15.456,-3.863 20.686,-5.012 25.6,-5.627 18.251,-2.285 18.807,-2.391 35.8,-6.871 4.51,-1.188 10.72,-2.697 13.8,-3.351 17.314,-3.679 24.99119,-15.175922 21.077,-29.211 0,0 0.0286,-4.399627 -2.10974,-7.193652 -2.34948,-8.59714 -4.64567,-11.175319 -7.61367,-14.568319 l -2.7879,-3.330711 c -2.37341,-3.024129 -4.08156,-4.303395 -6.81779,-6.464965 -2.42399,-1.773615 -3.70764,-2.582095 -5.95077,-4.038792 -6.01216,-2.604044 -5.88361,-2.975279 -14.01964,-4.772612 C 257.34847,33.162689 249.15469,33.872746 241.8,34.228 m 25.183,21.964 c 3.599,1.021 3.87113,1.296189 8.21704,4.095322 2.76857,2.150811 1.6242,0.983724 4.86194,4.583833 1.40959,1.767709 2.32055,2.263316 4.52733,5.71785 1.88815,2.484945 1.97868,2.965743 3.27137,5.72173 3.345,5.899 0.93632,7.920265 -6.91868,9.536265 -1.728,0.355 -4.042,0.979 -5.142,1.386 -6.493,2.401 -23.812,6.369 -33,7.562 -11.335,1.471 -14.464,2.003 -19,3.231 -2.42,0.655 -6.38,1.719 -8.8,2.364 -2.42,0.645 -6.11,1.646 -8.2,2.223 -6.16,1.702 -23.571,4.33 -25.024,3.778 -3.233,-1.229 1.983,-13.765 8.411,-20.217 1.987,-1.994 4.383,-4.553 5.323,-5.686 2.681,-3.229 18.731,-13.847 23.49,-15.539 1.98,-0.704 5.498,-2.183 7.818,-3.285 9.677,-4.599 11.666,-5.206 20.382,-6.218 3.717,-0.431 17.462,0.087 19.783,0.746 m -40.337,80.397 c -4.25334,2.40865 -4.96082,3.22316 -7.6758,6.8517 l -1.81366,4.0771 4.97677,-3.17617 c 4.585,-4.982 3.27816,-1.50764 10.65516,-0.45164 4.464,0.639 3.45008,1.39745 7.22208,4.41145 1.433,1.145 3.67986,5.44991 5.10986,6.19691 1.43,0.748 6.29657,-1.54302 7.49557,-0.38802 1.199,1.155 15.31023,10.37807 15.39307,10.38322 0.92626,0.0576 -5.59542,-8.2708 -9.49396,-12.55355 -2.50013,-2.92419 -3.96963,-3.84792 -10.59004,-9.80216 -3.29882,-2.55838 -3.09809,-2.22029 -6.50904,-3.77439 -7.13751,-3.2337 -11.12761,-2.78111 -14.77001,-1.77445 M 116,298.216 c 0,0 -0.1129,0.0205 -0.16979,0.0314 -1.81945,0.34746 -6.4358,1.68717 -13.44178,5.24976 -1.83234,0.94958 -3.088245,1.4236 -4.41543,2.51182 -7.87337,6.45574 -9.601208,12.12442 -8.542481,20.41002 0.730153,4.51862 0.112395,3.37952 2.654682,10.01446 2.247247,4.8956 3.329239,7.54638 6.357112,12.13205 l 3.868497,4.71446 c 2.61741,2.95758 2.19128,2.36594 4.81677,4.89445 2.14826,1.86671 3.71863,2.99601 5.54929,4.36509 5.81377,3.17384 6.03044,3.20309 15.12313,5.80947 19.961,3.227 35.82707,2.1635 50.41769,-4.79141 6.20868,-2.74284 9.12942,-4.27935 10.6014,-4.81204 6.62482,-3.68591 8.32279,-4.24578 14.70428,-8.261 2.9831,-1.97037 2.74851,-1.70376 5.06962,-3.50675 2.57187,-1.84794 2.66081,-1.8256 4.982,-4.085 1.60745,-1.56466 3.09901,-3.3948 5.15101,-4.8058 3.402,-2.338 3.11503,-2.58122 6.05234,-5.79879 0.78889,-0.86416 2.318,-3.214 3.947,-4.838 1.52503,-2.38364 2.34131,-3.67901 3.43666,-4.97421 1.334,-2.634 7.56656,-16.62913 6.27175,-14.44593 0,0 1.06023,-2.13773 -2.16377,0.48127 -1.43,1.161 -3.43476,1.49274 -4.68776,2.71274 -2.798,2.723 2.33534,1.108 -10.42799,11.54186 -1.30643,1.06799 0.12483,-2.41538 -0.38917,-2.41538 -0.909,0 -13.06892,8.06358 -13.59592,7.31758 -0.765,-1.084 0.94247,-4.96655 3.83647,-8.04955 3.91722,-3.10595 6.74947,-5.90125 -0.002,-0.912 -1.99658,1.47545 -1.23937,1.05129 -6.29661,5.38641 -2.74092,2.40466 -2.64811,2.14602 -5.855,5.082 -1.84471,1.57872 -2.19974,1.96891 -4.82901,4.14624 -3.58052,2.6277 -3.84646,2.7479 -7.45699,4.66076 -3.46791,1.90568 -5.19971,2.99355 -10.239,5.298 -8.1183,4.64186 -11.11312,5.28049 -20.20954,7.01915 -3.21975,0.65434 -6.80887,0.90494 -6.80887,0.90494 -6.1463,0.69386 -10.10159,0.26891 -18.08859,-1.63509 -5.57527,-1.96825 -6.46046,-2.3073 -10.032,-5.449 -1.5107,-1.40138 -2.894,-3.525 -4.307,-4.997 -2.751,-2.868 -6.738,-11.175 -7.164,-14.928 -0.451,-3.968 4.803,-6.13 18.483,-7.606 2.072,-0.224 14.869,-3.202 27.4,-6.376 2.09,-0.53 4.16,-1.042 4.6,-1.139 0.44,-0.097 -0.086,-0.098 -1.17,-0.002 -1.083,0.096 -3.513,0.514 -5.4,0.929 -3.409,0.751 -12.727,2.518 -20.071,3.808 -5.05,0.886 -20.712,0.685 -24.759,-0.319 -1.43,-0.354 -4.15928,-1.22947 -6.29628,-1.70447 -5.396996,-1.201 -5.65172,-1.36053 -1.24272,-5.57553 18.03896,-6.48411 22.74407,-8.44964 24.42344,-8.0545 23.15837,-1.52206 30.35133,-8.7807 -9.68444,0.0605"
       stroke="none"
       fill="#5fbaa8"
       fill-rule="evenodd"
       sodipodi:nodetypes="ccccccccccccccccccccccccccccccccccccccccccccccccccsccccscccccccsscsscccccscscccccccccccscscccccssccscccccccccccccscccccccc"
       style="fill:#d5e5ff" />
    <path
       id="path1"
       d="m 155.022,118.711 c -0.06,0.061 -1.937,0.184 -4.17,0.273 -4.378,0.176 -8.465,1.276 -15.252,4.106 -1.87,0.78 -4.43212,1.28944 -6.68912,2.00544 -9.055,2.872 -22.41688,14.60556 -27.07688,23.77756 -1.231,2.422 -2.862,5.52 -3.625,6.885 -5.477,9.793 -4.65,26.737 1.939,39.74 0.55,1.084 1.396,3.216 1.881,4.737 1.146,3.59 2.101,5.459 3.725,7.283 2.099,2.358 5.326,7.385 7.52,11.713 1.434,2.828 2.819,4.845 4.749,6.911 1.853,1.984 3.199,3.916 4.207,6.039 0.977,2.059 2.33,4.024 3.974,5.771 1.371,1.456 3.641,4.297 5.044,6.313 3.292,4.727 10.518,12.425 15.401,16.407 6.765,5.515 8.087,6.443 10.038,7.049 1.052,0.327 3.762,1.178 6.022,1.89 9.833,3.101 19.056,-3.484 21.584,-15.411 0.874,-4.125 0.992,-28.915 0.179,-37.6 -1.106,-11.823 -2.514,-23.352 -3.295,-27 -0.448,-2.09 -1.167,-5.69 -1.597,-8 -0.43,-2.31 -0.968,-4.74 -1.195,-5.4 -0.396,-1.147 -1.51,-7.23 -3.224,-17.6 -0.978,-5.914 -1.494,-12.696 -1.646,-21.614 -0.134,-7.939 0.2045,-7.39517 3.00273,-10.41477 2.52537,-2.5086 0.0379,-3.04314 -0.79112,-3.55561 -1.02588,-0.64765 -0.48668,-0.28546 -1.98812,-1.01072 -1.12379,-0.46293 -0.94243,-0.51427 -2.23344,-0.9171 l -1.23034,-0.36548 c -0.89297,-0.22583 -0.36932,-0.17926 -1.64732,-0.38429 -0.963,-0.155 -0.71739,-0.0721 -3.02739,-0.63206 -3.486,-0.846 -8.55925,-0.90166 -10.578,-0.995 m -2.2,17.701 c 1.592,0.852 1.86,2.25 2.109,10.988 0.152,5.371 0.544,10.419 1.087,14 0.468,3.08 1.086,7.31 1.375,9.4 0.289,2.09 1.438,8.75 2.554,14.8 3.998,21.678 5.731,57.66 2.852,59.201 -2.059,1.101 -15.378,-12.673 -20.572,-21.276 -1.021,-1.691 -3.085,-4.428 -4.587,-6.081 -1.502,-1.654 -3.047,-3.69 -3.434,-4.525 -1.95,-4.217 -2.794,-5.611 -4.764,-7.865 -2.839,-3.249 -5.442,-7.343 -7.855,-12.354 -1.085,-2.255 -2.653,-5.367 -3.484,-6.917 -4.661,-8.693 -4.592,-18.346 0.19,-26.583 4.87,-8.389 7.782,-11.263 15.613,-15.405 3.242,-1.714 7.058,-3.851 8.481,-4.747 4.227,-2.663 8.411,-3.72 10.435,-2.636 m 81.2591,6.68128 c 0,0 -1.67397,-1.10353 -3.37012,-3.18349 -1.04249,-1.27839 -1.7336,-2.28969 -3.83393,-1.1864 -3.52872,1.85361 -7.94895,5.04652 -9.80085,9.07521 -3.168,6.183 -3.8422,43.57442 -0.8432,60.20142 0.536,2.97 1.535,8.46 2.219,12.2 0.684,3.74 1.568,8.78 1.962,11.2 0.395,2.42 0.904,5.21 1.131,6.2 1.266,5.518 2.432,33.924 1.485,36.189 -0.727,1.74 -2.347,2.302 -10.43,3.615 -3.52,0.572 -7.545,1.412 -8.945,1.866 -2.469,0.801 -4.881,1.455 -13.655,3.705 -2.31,0.593 -5.37,1.434 -6.8,1.87 -1.43,0.436 -8.225,1.599 -15.101,2.584 -6.875,0.985 -12.995,1.981 -13.6,2.214 -0.604,0.232 -2.899,0.838 -5.099,1.348 -2.2,0.509 -12.15051,2.24377 -15.35024,3.24776 -9.98406,2.12353 -5.66521,1.2654 -14.44976,3.88824 -9.4928,2.83431 -12.87362,4.16789 -18.339,8.08298 -4.409,4.215 -4.502411,4.43724 0.96533,5.66169 2.137,0.475 5.14367,1.26433 6.57367,1.61833 4.047,1.004 19.709,1.205 24.759,0.319 7.498,-1.317 16.691,-3.064 20.24,-3.847 3.455,-0.762 9.5983,-1.08778 21.801,-2.975 5.643,-0.639 11.192,-1.789 20.2,-4.188 24.018,-6.397 25.307,-6.1 20.29,4.675 -1.108,2.379 -2.324,5.296 -2.702,6.48 -0.379,1.185 -1.333,2.868 -2.12,3.74 -0.788,0.872 -2.036,2.242 -2.774,3.045 -2.28318,3.0831 -8.7309,7.82153 -10.21683,13.068 6.98131,-2.81565 9.31736,-4.17304 13.09874,-5.88135 7.86956,-3.55523 4.90352,-2.08997 10.95917,-4.81231 5.72864,-4.26334 1.49744,-0.77258 6.80534,-5.65358 1.92359,-2.0331 3.19804,-3.69586 5.49115,-6.298 3.55061,-2.68517 3.85734,-2.94152 3.85734,-2.94152 1.324,-2.86 3.00509,-7.25024 3.93709,-10.22024 2.38,-7.584 2.009,-7.291 12.455,-9.842 8.90583,-3.00015 10.66193,-3.92015 18.949,-8.199 3.20678,-1.74534 2.3509,-1.40767 4.91481,-3.01195 4.77023,-2.93634 3.59867,-2.13088 6.85219,-4.91305 2.09693,-1.79314 3.392,-3.436 4.855,-4.499 2.65287,-2.89932 2.03252,-2.20617 4.357,-5.234 0.934,-1.816 2.474,-4.561 3.421,-6.101 8.982,-14.603 8.464,-31.337 -1.542,-49.8 -0.775,-1.43 -1.816,-3.738 -2.313,-5.13 -0.679,-1.901 -1.588,-3.282 -3.659,-5.562 -1.515,-1.668 -3.497,-4.31 -4.405,-5.871 -4.563,-7.846 -5.756,-9.641 -8.126,-12.223 -1.541,-1.679 -3.207,-4.069 -4.164,-5.972 -1.81317,-2.81042 -2.26068,-3.42166 -4.038,-5.307 -2.62502,-3.34666 -2.86272,-3.21517 -4.84713,-4.69951 -3.33723,-2.64792 -0.11863,0.388 -6.73852,-5.02776 -5.05118,-3.33604 -5.33742,-2.80759 -7.05842,-3.70459 -1.43,-0.746 -1.63038,-0.63698 -4.13406,-1.69277 -4.48509,-2.93617 -2.20747,-1.27463 -4.94937,-3.12971 0,0 -1.18975,-0.58397 -5.237,-2.74116 m 3.5925,15.9585 c 1.462,1.34 4.057,4.162 5.766,6.27 1.709,2.107 4.212,5.049 5.563,6.537 1.35,1.488 3.083,3.952 3.85,5.476 1.51703,2.08744 2.74021,3.63454 4.355,5.935 2.42387,3.20524 2.76177,4.02075 4.545,6.525 1.43067,2.24949 2.28152,3.60282 3.173,5.359 2.949,4.48483 5.32644,8.50179 7.829,12.295 0.624,1.481 2.023,4.158 3.11,5.948 6.68,10.997 6.653,24.529 -0.064,31.895 -1.072,1.177 0,0 -3.008,4 -2.81595,3.04144 -2.75596,2.99346 -6.29,5.934 -2.12568,1.64953 -2.01537,1.81162 -4.97976,3.45362 -4.4373,2.55489 -5.24496,2.95481 -11.00524,5.24738 -7.266,2.105 -8.102,1.509 -8.666,-6.173 -1.444,-19.685 -1.56,-20.709 -3.391,-30.017 -1.957,-9.948 -3.24,-16.193 -4.811,-23.418 -0.985,-4.531 -2.613,-20.305 -3.391,-32.87 -0.98,-15.799 0.678,-18.57 7.415,-12.397"
       stroke="none"
       fill="#0ba6a5"
       fill-rule="evenodd"
       sodipodi:nodetypes="ccccccccccccccccccccsccccccccccccccscccccccccccccssccsccccccsccccsccccccccccccsccccccccscccsccccccccccccccccccccccccccccccc"
       style="fill:#b7c8be" />
  </g>
</svg>
