<?xml version="1.0" encoding="UTF-8"?>
<svg xmlns="http://www.w3.org/2000/svg" xmlns:xlink="http://www.w3.org/1999/xlink" width="496" height="496" viewBox="0 0 496 496" version="1.1">
<g id="surface1">
<path style=" stroke:none;fill-rule:evenodd;fill:rgb(100%,100%,100%);fill-opacity:1;" d="M 403.550781 248 C 403.550781 160.199219 332.761719 89.027344 245.441406 89.027344 L 245.441406 0 C 381.660156 0 492.089844 111.035156 492.089844 248 C 492.089844 384.964844 381.660156 496 245.441406 496 L 245.441406 406.972656 C 332.761719 406.972656 403.550781 335.800781 403.550781 248 Z M 403.550781 248 "/>
<path style=" stroke:none;fill-rule:nonzero;fill:rgb(10.196079%,62.352943%,100%);fill-opacity:1;" d="M 367.410156 248 C 367.410156 316.109375 312.195312 371.324219 244.085938 371.324219 C 175.980469 371.324219 120.765625 316.109375 120.765625 248 C 120.765625 179.890625 175.980469 124.679688 244.085938 124.679688 C 312.195312 124.679688 367.410156 179.890625 367.410156 248 Z M 367.410156 248 "/>
</g>
</svg>
