<?xml version="1.0" encoding="UTF-8" standalone="no"?>
<svg
   version="1.1"
   id="Calque_1"
   x="0px"
   y="0px"
   width="496"
   height="496"
   viewBox="0 0 496 496"
   enable-background="new 0 0 712 860"
   xml:space="preserve"
   xmlns="http://www.w3.org/2000/svg"
   xmlns:svg="http://www.w3.org/2000/svg"
   xmlns:rdf="http://www.w3.org/1999/02/22-rdf-syntax-ns#"
   xmlns:cc="http://creativecommons.org/ns#"
   xmlns:dc="http://purl.org/dc/elements/1.1/"><metadata
     id="metadata23"><rdf:RDF><cc:Work
         rdf:about=""><dc:format>image/svg+xml</dc:format><dc:type
           rdf:resource="http://purl.org/dc/dcmitype/StillImage" /></cc:Work></rdf:RDF></metadata><defs
     id="defs21"><linearGradient
       id="linearGradient28799-5-5"><stop
         id="stop28801-1-9"
         offset="0"
         style="stop-color:#fefefc;stop-opacity:1;" /><stop
         style="stop-color:#fefefc;stop-opacity:1"
         offset="0.75733864"
         id="stop28807-2-6" /><stop
         id="stop28803-6-3"
         offset="1"
         style="stop-color:#d4d4d4;stop-opacity:1" /></linearGradient><linearGradient
       id="linearGradient28853-5"><stop
         id="stop28855-3"
         offset="0"
         style="stop-color:#020204;stop-opacity:1" /><stop
         style="stop-color:#020204;stop-opacity:1"
         offset="0.73448181"
         id="stop28865-0" /><stop
         id="stop28857-9"
         offset="1"
         style="stop-color:#5c5c5c;stop-opacity:1;" /></linearGradient><linearGradient
       id="linearGradient28935-8"><stop
         id="stop28937-7"
         offset="0"
         style="stop-color:#949494;stop-opacity:0.39215687;" /><stop
         style="stop-color:#949494;stop-opacity:1;"
         offset="0.5"
         id="stop28943-3" /><stop
         id="stop28939-8"
         offset="1"
         style="stop-color:#949494;stop-opacity:0.39215687;" /></linearGradient><linearGradient
       id="linearGradient28976-3"><stop
         id="stop28978-7"
         offset="0"
         style="stop-color:#747474;stop-opacity:1" /><stop
         style="stop-color:#8c8c8c;stop-opacity:1;"
         offset="0.125"
         id="stop29259-5" /><stop
         style="stop-color:#a4a4a4;stop-opacity:1;"
         offset="0.25"
         id="stop29257-0" /><stop
         style="stop-color:#d4d4d4;stop-opacity:1"
         offset="0.5"
         id="stop28984-4" /><stop
         id="stop28986-0"
         offset="0.61919296"
         style="stop-color:#d4d4d4;stop-opacity:1" /><stop
         id="stop28980-2"
         offset="1"
         style="stop-color:#7c7c7c;stop-opacity:1" /></linearGradient><clipPath
       id="clipPath29028-5"
       clipPathUnits="userSpaceOnUse"><path
         id="path29030-7"
         d="m 85.75,122.36218 c -2.780425,1.91023 -5.110569,4.57487 -6.25,7.75 -1.436029,4.00163 -0.885838,8.48071 0.5,12.5 1.419488,4.11688 3.793788,8.04098 7.37932,10.51234 1.792766,1.23567 3.868091,2.08301 6.030402,2.33859 2.162311,0.25558 4.409274,-0.0949 6.340278,-1.10093 2.35312,-1.22596 4.14782,-3.37278 5.26217,-5.78076 1.11436,-2.40798 1.5888,-5.0701 1.73783,-7.71924 0.18989,-3.37546 -0.14047,-6.80646 -1.25,-10 -1.20527,-3.46909 -3.39005,-6.67055 -6.472754,-8.6666 -1.541351,-0.99803 -3.291947,-1.68356 -5.110883,-1.93515 -1.818936,-0.25158 -3.704766,-0.0633 -5.416363,0.60175 -0.975471,0.37901 -1.887438,0.9074 -2.75,1.5"
         style="fill:url(#radialGradient29032);fill-opacity:1;stroke:none" /></clipPath><linearGradient
       id="linearGradient29336-6"><stop
         id="stop29338-1"
         offset="0"
         style="stop-color:#646464;stop-opacity:0" /><stop
         style="stop-color:#646464;stop-opacity:0.5825243"
         offset="0.30628255"
         id="stop29344-7" /><stop
         id="stop29354-5"
         offset="0.47000006"
         style="stop-color:#646464;stop-opacity:1" /><stop
         style="stop-color:#646464;stop-opacity:0.25728154"
         offset="0.72834015"
         id="stop29356-3" /><stop
         id="stop29340-6"
         offset="1"
         style="stop-color:#646464;stop-opacity:0;" /></linearGradient><linearGradient
       id="linearGradient29477-3"><stop
         id="stop29479-5"
         offset="0"
         style="stop-color:#757574;stop-opacity:0" /><stop
         style="stop-color:#757574;stop-opacity:1;"
         offset="0.26291031"
         id="stop29487-5" /><stop
         style="stop-color:#757574;stop-opacity:1;"
         offset="0.5"
         id="stop29485-0" /><stop
         id="stop29481-3"
         offset="1"
         style="stop-color:#757574;stop-opacity:0" /></linearGradient><linearGradient
       id="linearGradient28469-0"><stop
         style="stop-color:#d2940a;stop-opacity:1"
         offset="0"
         id="stop28479-4" /><stop
         style="stop-color:#d89c08;stop-opacity:1"
         offset="0.75143719"
         id="stop28477-2" /><stop
         id="stop28485-7"
         offset="0.86579126"
         style="stop-color:#b67e07;stop-opacity:1;" /><stop
         id="stop28473-1"
         offset="1"
         style="stop-color:#946106;stop-opacity:1" /></linearGradient><linearGradient
       id="linearGradient28275-8"><stop
         id="stop28277-1"
         offset="0"
         style="stop-color:#ad780a;stop-opacity:1" /><stop
         style="stop-color:#d89e08;stop-opacity:1"
         offset="0.11972899"
         id="stop28291-9" /><stop
         style="stop-color:#edb80b;stop-opacity:1"
         offset="0.25514477"
         id="stop28289-6" /><stop
         style="stop-color:#ebc80d;stop-opacity:1"
         offset="0.39194193"
         id="stop28287-6" /><stop
         style="stop-color:#f5d838;stop-opacity:1"
         offset="0.52741116"
         id="stop28285-7" /><stop
         style="stop-color:#f6d811;stop-opacity:1"
         offset="0.76906693"
         id="stop28283-7" /><stop
         id="stop28279-5"
         offset="1"
         style="stop-color:#f5cd31;stop-opacity:1" /></linearGradient><linearGradient
       id="linearGradient29529-6"><stop
         id="stop29531-0"
         offset="0"
         style="stop-color:#3a2903;stop-opacity:1;" /><stop
         style="stop-color:#735208;stop-opacity:1"
         offset="0.55472803"
         id="stop29539-7" /><stop
         id="stop29533-8"
         offset="1"
         style="stop-color:#ac8c04;stop-opacity:1" /></linearGradient><clipPath
       id="clipPath29644-8"
       clipPathUnits="userSpaceOnUse"><path
         id="path29646-8"
         d="m 54.232441,122.36218 c -1.780966,0.097 -3.484616,0.91899 -4.787851,2.1367 -1.303235,1.21771 -2.221372,2.81176 -2.786181,4.50357 -1.129618,3.38363 -0.875481,7.05177 -0.618698,10.60973 0.23251,3.22162 0.470404,6.50533 1.676785,9.50158 0.60319,1.49813 1.450247,2.91021 2.580338,4.06395 1.130092,1.15374 2.551736,2.04189 4.118297,2.43447 1.468838,0.36809 3.038161,0.29183 4.482784,-0.16209 1.444623,-0.45391 2.763917,-1.27887 3.846236,-2.33791 1.57904,-1.54507 2.643262,-3.5662 3.253449,-5.68947 0.610186,-2.12328 0.784157,-4.35155 0.752401,-6.56053 -0.03974,-2.76435 -0.400909,-5.53851 -1.265755,-8.16439 -0.864846,-2.62588 -2.245742,-5.10327 -4.172795,-7.08561 -0.933308,-0.96009 -1.997766,-1.80513 -3.198586,-2.39747 -1.200819,-0.59233 -2.54344,-0.92535 -3.880424,-0.85253"
         style="fill:url(#radialGradient29648);fill-opacity:1;stroke:none" /></clipPath><clipPath
       clipPathUnits="userSpaceOnUse"
       id="clipPath14656-7"><path
         d="m 304.84727,225.44951 c 6.01627,4.92338 9.77707,12.317 10.94319,20.00305 1.8254,12.03148 -2.34636,24.07488 -6.44591,35.53273 -0.81749,2.28481 -1.63978,4.59033 -1.96473,6.99513 -0.32495,2.4048 -0.11897,4.94825 1.02948,7.08594 1.30279,2.42497 3.73227,4.12469 6.36677,4.92292 2.58877,0.78438 5.39365,0.76103 8.01466,0.0922 2.62101,-0.66882 5.06097,-1.96774 7.18716,-3.63996 5.48002,-4.30997 8.75799,-10.98552 10.01043,-17.84394 1.25243,-6.85841 0.63908,-13.92879 -0.551,-20.7983 -1.62313,-9.36916 -4.30898,-18.53961 -7.74003,-27.40773 -2.51766,-6.50732 -5.46794,-12.91081 -9.61753,-18.52016 -4.04611,-5.46946 -9.16208,-10.08954 -13.10336,-15.63502 -2.73209,-3.84412 -4.89983,-8.13097 -8.1917,-11.50812 -1.64594,-1.68858 -3.57654,-3.13527 -5.76975,-4.00143 -2.19321,-0.86616 -4.66356,-1.12446 -6.93254,-0.48249 -1.50468,0.42573 -2.89193,1.23739 -4.03791,2.30136 -1.14598,1.06397 -2.05268,2.37637 -2.69275,3.80312 -1.28015,2.85349 -1.47719,6.11241 -0.96512,9.1977 0.66114,3.98343 2.44407,7.69333 4.46569,11.18873 2.27396,3.93169 4.918,7.71926 8.38442,10.65407 3.5985,3.04664 7.96161,5.07413 11.61053,8.0602"
         id="path14658-9"
         style="fill:none;stroke:#c17d11;stroke-width:1px;stroke-linecap:butt;stroke-linejoin:miter;stroke-opacity:1" /></clipPath><clipPath
       clipPathUnits="userSpaceOnUse"
       id="clipPath14489-3"><path
         style="fill:url(#linearGradient14493);fill-opacity:1;stroke:none"
         d="m 516.00562,331.8756 c -0.6714,1.71905 -1.62682,3.32679 -2.81579,4.73826 -2.6238,3.11482 -6.268,5.17039 -9.89648,7.01985 -6.1886,3.15437 -12.60169,5.92177 -18.41964,9.71654 -3.89802,2.54249 -7.4959,5.52671 -10.86016,8.74238 -2.87719,2.75012 -5.60582,5.68745 -8.83247,8.01771 -3.25567,2.35122 -7.01915,4.05426 -10.99061,4.6502 -4.83026,0.72481 -9.82134,-0.21289 -14.29898,-2.16416 -3.13754,-1.36728 -6.15569,-3.3229 -7.96301,-6.22931 -1.81425,-2.91754 -2.22807,-6.48813 -2.23266,-9.92375 -0.008,-6.07666 1.11824,-12.09004 2.17848,-18.07349 0.88097,-4.97177 1.71949,-9.95483 2.26013,-14.97502 0.98337,-9.13118 0.9763,-18.35278 0.3199,-27.51327 -0.10993,-1.53416 -0.23754,-3.0832 -0.008,-4.60412 0.22922,-1.52092 0.85475,-3.0367 2.02069,-4.03986 1.07696,-0.9266 2.52093,-1.33598 3.93947,-1.4145 1.41854,-0.0785 2.83404,0.14655 4.23982,0.35197 3.31254,0.48405 6.65159,0.8649 9.88917,1.71656 2.04284,0.53738 4.03315,1.25925 6.0722,1.81081 3.40258,0.92039 6.96639,1.36144 10.46739,0.95192 3.76917,-0.44089 7.42987,-1.85678 11.22363,-1.76474 1.55658,0.0378 3.1015,0.33171 4.58649,0.79985 1.51539,0.47772 3.00914,1.16182 4.12281,2.29512 0.84639,0.8613 1.43579,1.94539 1.87872,3.06879 0.65982,1.67352 1.01492,3.457 1.16703,5.24945 0.13475,1.58788 0.11343,3.19441 0.41433,4.75933 0.49503,2.57458 1.84746,4.92305 3.52848,6.93494 1.68102,2.01189 3.68982,3.72048 5.69641,5.40783 1.99908,1.68103 4.0106,3.35469 6.16708,4.82839 1.0121,0.69165 2.05642,1.33949 3.01736,2.10062 0.96094,0.76113 1.84466,1.6468 2.44543,2.71535 0.81492,1.44944 1.06377,3.2077 0.68307,4.82635 h 2e-5"
         id="path14491-6" /></clipPath><clipPath
       clipPathUnits="userSpaceOnUse"
       id="clipPath14481-1"><path
         style="fill:url(#linearGradient14485);fill-opacity:1;stroke:none"
         d="m 516.00562,331.8756 c -0.6714,1.71905 -1.62682,3.32679 -2.81579,4.73826 -2.6238,3.11482 -6.268,5.17039 -9.89648,7.01985 -6.1886,3.15437 -12.60169,5.92177 -18.41964,9.71654 -3.89802,2.54249 -7.4959,5.52671 -10.86016,8.74238 -2.87719,2.75012 -5.60582,5.68745 -8.83247,8.01771 -3.25567,2.35122 -7.01915,4.05426 -10.99061,4.6502 -4.83026,0.72481 -9.82134,-0.21289 -14.29898,-2.16416 -3.13754,-1.36728 -6.15569,-3.3229 -7.96301,-6.22931 -1.81425,-2.91754 -2.22807,-6.48813 -2.23266,-9.92375 -0.008,-6.07666 1.11824,-12.09004 2.17848,-18.07349 0.88097,-4.97177 1.71949,-9.95483 2.26013,-14.97502 0.98337,-9.13118 0.9763,-18.35278 0.3199,-27.51327 -0.10993,-1.53416 -0.23754,-3.0832 -0.008,-4.60412 0.22922,-1.52092 0.85475,-3.0367 2.02069,-4.03986 1.07696,-0.9266 2.52093,-1.33598 3.93947,-1.4145 1.41854,-0.0785 2.83404,0.14655 4.23982,0.35197 3.31254,0.48405 6.65159,0.8649 9.88917,1.71656 2.04284,0.53738 4.03315,1.25925 6.0722,1.81081 3.40258,0.92039 6.96639,1.36144 10.46739,0.95192 3.76917,-0.44089 7.42987,-1.85678 11.22363,-1.76474 1.55658,0.0378 3.1015,0.33171 4.58649,0.79985 1.51539,0.47772 3.00914,1.16182 4.12281,2.29512 0.84639,0.8613 1.43579,1.94539 1.87872,3.06879 0.65982,1.67352 1.01492,3.457 1.16703,5.24945 0.13475,1.58788 0.11343,3.19441 0.41433,4.75933 0.49503,2.57458 1.84746,4.92305 3.52848,6.93494 1.68102,2.01189 3.68982,3.72048 5.69641,5.40783 1.99908,1.68103 4.0106,3.35469 6.16708,4.82839 1.0121,0.69165 2.05642,1.33949 3.01736,2.10062 0.96094,0.76113 1.84466,1.6468 2.44543,2.71535 0.81492,1.44944 1.06377,3.2077 0.68307,4.82635 h 2e-5"
         id="path14483-3" /></clipPath><clipPath
       clipPathUnits="userSpaceOnUse"
       id="clipPath14473-5"><path
         style="fill:url(#linearGradient14477);fill-opacity:1;stroke:none"
         d="m 511.82669,331.89986 c -0.60617,1.40358 -1.44178,2.70776 -2.46357,3.84504 -2.32524,2.58805 -5.50706,4.22246 -8.65855,5.69652 -5.42045,2.53534 -11.00071,4.7788 -16.11556,7.88485 -3.38301,2.05437 -6.53696,4.47221 -9.50169,7.09434 -2.52461,2.23286 -4.92977,4.6271 -7.72763,6.50627 -2.88313,1.93644 -6.17534,3.29888 -9.61582,3.77358 -4.21817,0.58201 -8.55335,-0.18335 -12.51035,-1.75619 -2.7091,-1.07682 -5.36625,-2.6185 -6.96693,-5.05501 -1.53813,-2.3413 -1.9333,-5.25173 -1.95338,-8.053 -0.0354,-4.93859 0.96501,-9.81816 1.90598,-14.66641 0.78215,-4.02995 1.52682,-8.0717 1.97741,-12.15204 0.81784,-7.40607 0.66114,-14.88536 0.27989,-22.32668 -0.064,-1.24906 -0.13361,-2.5105 0.0789,-3.74301 0.21256,-1.23251 0.73646,-2.45247 1.68171,-3.27147 0.93914,-0.8137 2.20952,-1.15942 3.45104,-1.2115 1.24152,-0.0521 2.47642,0.16381 3.70512,0.34927 2.88969,0.43617 5.81087,0.7091 8.65215,1.39297 1.78651,0.43 3.53091,1.02011 5.31265,1.46945 2.98632,0.75312 6.09645,1.10709 9.15804,0.77247 3.2941,-0.36004 6.50688,-1.50957 9.81969,-1.43207 1.35838,0.0318 2.70755,0.27142 4.01277,0.64907 1.31265,0.3798 2.61744,0.9202 3.6071,1.86246 0.72535,0.69061 1.25006,1.56936 1.64371,2.49029 0.57625,1.34814 0.88626,2.79994 1.02105,4.25986 0.11897,1.28855 0.10468,2.59405 0.36251,3.86214 0.4369,2.14878 1.63966,4.08139 3.11506,5.70353 1.4754,1.62214 3.22406,2.96752 4.9559,4.31247 1.75634,1.36398 3.50975,2.7398 5.39565,3.91818 0.88228,0.55128 1.79349,1.05932 2.63473,1.67142 0.84123,0.61209 1.61878,1.33907 2.14473,2.23668 0.68386,1.16711 0.90229,2.59857 0.59763,3.91652 h 2e-5"
         id="path14475-9" /></clipPath><linearGradient
       id="linearGradient14518-6"><stop
         id="stop14540-0"
         offset="0"
         style="stop-color:#110800;stop-opacity:1;" /><stop
         style="stop-color:#a65a00;stop-opacity:0.80000001;"
         offset="0.59066743"
         id="stop14542-5" /><stop
         style="stop-color:#ff921e;stop-opacity:0;"
         offset="1"
         id="stop14522-4" /></linearGradient><clipPath
       clipPathUnits="userSpaceOnUse"
       id="clipPath14822-9"><path
         d="m 386.1875,285.32775 c -0.40516,-1.10369 -1.11845,-2.08156 -1.9907,-2.86987 -0.87226,-0.78832 -1.90049,-1.39229 -2.98278,-1.85155 -2.16459,-0.91852 -4.52053,-1.26149 -6.83152,-1.69556 -2.17919,-0.40931 -4.34179,-0.90631 -6.52782,-1.27734 -2.27136,-0.38551 -4.6179,-0.63213 -6.8653,-0.1253 -1.96583,0.44333 -3.7845,1.45879 -5.27172,2.81864 -1.48723,1.35984 -2.64911,3.0564 -3.48499,4.89007 -1.47218,3.22952 -1.93451,6.86503 -1.65394,10.40316 0.20882,2.63325 0.87532,5.34594 2.60877,7.33912 1.40065,1.61052 3.38733,2.61526 5.43398,3.22092 3.52502,1.04316 7.36663,0.98822 10.86038,-0.1553 5.76689,-1.93113 10.87568,-5.77387 14.33034,-10.77903 1.13861,-1.64963 2.11217,-3.44809 2.5532,-5.4034 0.33597,-1.48955 0.34831,-3.08112 -0.1779,-4.51456"
         id="path14824-1"
         style="fill:none;stroke:#ce5c00;stroke-width:1px;stroke-linecap:butt;stroke-linejoin:miter;stroke-opacity:1" /></clipPath><clipPath
       clipPathUnits="userSpaceOnUse"
       id="clipPath14822-2-4"><path
         d="m 386.1875,285.32775 c -0.40516,-1.10369 -1.11845,-2.08156 -1.9907,-2.86987 -0.87226,-0.78832 -1.90049,-1.39229 -2.98278,-1.85155 -2.16459,-0.91852 -4.52053,-1.26149 -6.83152,-1.69556 -2.17919,-0.40931 -4.34179,-0.90631 -6.52782,-1.27734 -2.27136,-0.38551 -4.6179,-0.63213 -6.8653,-0.1253 -1.96583,0.44333 -3.7845,1.45879 -5.27172,2.81864 -1.48723,1.35984 -2.64911,3.0564 -3.48499,4.89007 -1.47218,3.22952 -1.93451,6.86503 -1.65394,10.40316 0.20882,2.63325 0.87532,5.34594 2.60877,7.33912 1.40065,1.61052 3.38733,2.61526 5.43398,3.22092 3.52502,1.04316 7.36663,0.98822 10.86038,-0.1553 5.76689,-1.93113 10.87568,-5.77387 14.33034,-10.77903 1.13861,-1.64963 2.11217,-3.44809 2.5532,-5.4034 0.33597,-1.48955 0.34831,-3.08112 -0.1779,-4.51456"
         id="path14824-6-5"
         style="fill:none;stroke:#ce5c00;stroke-width:1px;stroke-linecap:butt;stroke-linejoin:miter;stroke-opacity:1" /></clipPath><clipPath
       clipPathUnits="userSpaceOnUse"
       id="clipPath15031-3"><path
         style="fill:none;stroke:#729fcf;stroke-width:0.125;stroke-linecap:butt;stroke-linejoin:miter;stroke-miterlimit:4;stroke-dasharray:none;stroke-opacity:1"
         d="m 248.06066,184.61218 c -2.60091,3.4397 -5.23338,6.85555 -7.89695,10.24696 -2.83301,3.60715 -5.70116,7.1866 -8.58729,10.75139 -3.54135,4.37407 -7.15155,8.79286 -9.44912,13.93045 -1.97407,4.41422 -2.91014,9.20748 -4.26498,13.84932 -1.53862,5.27153 -3.62627,10.37023 -5.97071,15.33612 -2.1648,4.58539 -4.54978,9.06293 -6.93891,13.53553 -1.73823,3.25407 -3.50515,6.58104 -4.10782,10.22071 -0.47627,2.87632 -0.19849,5.84423 0.53376,8.66626 0.73224,2.82202 1.90964,5.5106 3.23775,8.10601 5.66724,11.07504 14.17003,20.62168 24.24176,27.92472 4.57063,3.31418 9.46669,6.18109 14.60245,8.52595 2.78247,1.27041 5.71355,2.40436 8.77186,2.45744 1.52915,0.0265 3.0741,-0.22544 4.47434,-0.84055 1.40024,-0.6151 2.65068,-1.60373 3.48254,-2.88709 1.02278,-1.5779 1.36992,-3.53829 1.16461,-5.40743 -0.2053,-1.86914 -0.93484,-3.65294 -1.91324,-5.25873 -2.38997,-3.92251 -6.1652,-6.76055 -9.79642,-9.57343 -7.84055,-6.07358 -15.42466,-12.48038 -22.68212,-19.23996 -2.04911,-1.90854 -4.0984,-3.87759 -5.53019,-6.28412 -1.3943,-2.34352 -2.14763,-5.01375 -2.65783,-7.69253 -1.39963,-7.34872 -1.0404,-15.0827 1.45958,-22.13343 0.97802,-2.75834 2.27066,-5.39225 3.51815,-8.03965 2.1622,-4.58855 4.21133,-9.26299 7.04933,-13.46723 3.53268,-5.23334 8.24484,-9.67275 11.15147,-15.27803 2.45457,-4.7335 3.49353,-10.05742 4.36185,-15.31831 0.66531,-4.03089 1.24751,-8.07549 1.74613,-12.13037"
         id="path15033-2" /></clipPath><clipPath
       clipPathUnits="userSpaceOnUse"
       id="clipPath14186-9"><path
         id="path14188-1"
         d="m 137.57703,281.0191 c 1.59929,-0.66295 3.3982,-0.78361 5.10074,-0.46963 1.70253,0.31398 3.31141,1.04948 4.74342,2.02239 2.86402,1.94583 4.98821,4.77774 7.02263,7.57952 4.67189,6.43406 9.16868,13.00227 13.24488,19.8293 3.30635,5.53766 6.34352,11.25685 10.16415,16.45304 2.49398,3.3919 5.3066,6.53947 7.813,9.92221 2.50639,3.38273 4.72794,7.05586 5.83931,11.11662 1.44411,5.27653 0.88463,11.09291 -1.62666,15.95302 -1.76663,3.41896 -4.47646,6.35228 -7.77242,8.33898 -3.29595,1.9867 -7.17064,3.01444 -11.01635,2.87021 -6.11413,-0.2293 -11.69944,-3.28515 -17.38362,-5.54906 -11.58097,-4.6125 -24.15978,-6.0594 -36.09666,-9.65174 -3.66859,-1.10404 -7.27582,-2.4107 -10.96988,-3.42629 -1.64125,-0.45122 -3.30866,-0.8482 -4.85875,-1.55144 -1.55008,-0.70325 -2.999548,-1.7491 -3.86171,-3.21675 -0.666391,-1.13439 -0.948386,-2.47002 -0.930187,-3.78554 0.0182,-1.31552 0.325889,-2.61453 0.773815,-3.85158 0.895851,-2.47409 2.343262,-4.71374 3.320162,-7.15696 1.59511,-3.98935 1.88169,-8.38839 1.66657,-12.67942 -0.21511,-4.29103 -0.91078,-8.54478 -1.20454,-12.83115 -0.13118,-1.91406 -0.18066,-3.85256 0.18479,-5.73598 0.36545,-1.88343 1.17577,-3.72459 2.55771,-5.05541 1.27406,-1.22693 2.96492,-1.95531 4.69643,-2.31651 1.73151,-0.3612 3.51533,-0.37747 5.28367,-0.33762 1.76833,0.0399 3.54067,0.13425 5.30351,-0.0106 1.76284,-0.14488 3.53347,-0.54055 5.06911,-1.41828 1.45996,-0.83447 2.65433,-2.0745 3.64374,-3.43424 0.9894,-1.35974 1.78909,-2.84573 2.60891,-4.31396 0.81983,-1.46823 1.66834,-2.93151 2.74157,-4.22611 1.07324,-1.2946 2.38923,-2.42304 3.94266,-3.06698"
         style="fill:#402c07;fill-opacity:1;stroke:none" /></clipPath></defs><path
     d="m 433.89488,392.768 c -0.006,-0.006 -0.012,-0.012 -0.012,-0.017 -3.45708,-3.90197 -5.10388,-11.13627 -6.87486,-18.84337 -1.76642,-7.70141 -3.74247,-16.00662 -10.06537,-21.38963 -0.012,-0.012 -0.029,-0.0228 -0.0399,-0.0347 -1.25319,-1.09369 -2.54055,-2.01592 -3.83362,-2.78549 -1.29818,-0.769 -2.6146,-1.3956 -3.92987,-1.89117 8.78939,-26.06629 5.34313,-52.02377 -3.53172,-75.47602 -10.8856,-28.78918 -29.89416,-53.86943 -44.41404,-71.0267 -16.25155,-20.50099 -32.14481,-39.95957 -31.83094,-68.70311 0.48362,-43.867229 4.8242,-125.2161349 -72.3721,-125.3243646 -3.13866,-0.00569 -6.41404,0.1253186 -9.82612,0.3987412 C 160.89952,14.61898 183.78157,105.75984 182.4999,136.27493 c -1.57788,22.31812 -6.10074,39.90829 -21.45228,61.72514 -18.0288,21.44088 -43.42292,56.14845 -55.44782,92.28011 -5.673513,17.04904 -8.373553,34.42788 -5.884273,50.87881 -0.780398,0.70065 -1.520918,1.43604 -2.232947,2.18795 -5.291869,5.65643 -9.205229,12.50282 -13.562901,17.11112 -4.072857,4.06773 -9.871694,5.61143 -16.251553,7.89508 -6.379859,2.29048 -13.380617,5.66213 -17.630059,13.81923 0,0 0,0.006 -0.0057,0.006 -0.0057,0.0114 -0.01139,0.0285 -0.02279,0.0393 -1.999403,3.73108 -2.648781,7.75837 -2.648781,11.84262 0,3.77665 0.558237,7.60513 1.122171,11.29007 1.173439,7.66722 2.363967,14.91805 0.78609,19.82882 -5.046924,13.80215 -5.696303,23.34346 -2.14181,30.27074 3.565887,6.9381 10.885636,9.997 19.162364,11.72868 16.553458,3.45196 38.968409,2.59752 56.632649,11.96224 l 1.52091,-2.86525 -1.50382,2.87095 c 18.91172,9.88878 38.08548,13.39827 53.38005,9.90587 11.0964,-2.52859 20.09656,-9.1363 24.72196,-19.29908 11.96223,-0.0569 25.09221,-5.12667 46.12296,-6.28245 14.26925,-1.15122 32.09298,5.06913 52.59397,3.92988 0.53545,2.22156 1.31072,4.36337 2.36966,6.39694 0.012,0.0165 0.0228,0.0393 0.0347,0.0569 7.94578,15.89269 22.71059,23.16117 38.45004,21.91937 15.75541,-1.24236 32.50824,-10.53247 46.05462,-26.64731 l -2.48359,-2.08484 2.50124,2.06207 c 12.90783,-15.65344 34.33163,-22.14153 48.5439,-30.70878 7.10329,-4.28362 12.86226,-9.64897 13.31227,-17.44208 0.44317,-7.78685 -4.13096,-16.51359 -14.64634,-28.18531 z"
     id="path3"
     style="fill:#202020;fill-opacity:1;stroke-width:0.56963"
     fill="#000000" /><path
     fill="#D6A312"
     d="m 442.05769,420.58306 c -0.95955,8.55967 -10.29985,12.19927 -16.86696,15.85829 -16.46483,7.82251 -33.88838,15.71635 -45.28564,30.57944 -12.30097,13.75078 -30.49013,25.02905 -49.58238,21.81154 -15.04668,-2.6496 -26.74169,-17.96886 -24.82516,-33.23598 1.6078,-22.58806 13.77085,-43.19786 13.42436,-66.06879 1.2294,-14.36784 1.21002,-29.94908 9.26319,-42.50015 2.38617,-3.38045 9.89795,-10.96775 8.83294,-2.35544 1.63782,10.89032 8.73838,23.30905 20.9314,23.97306 12.71545,0.053 24.57344,-7.14407 33.14852,-16.10481 8.38614,-0.81459 18.35252,-0.21184 23.76214,7.22306 8.00699,11.99814 5.04932,28.95445 16.0037,39.37668 4.98439,6.1948 11.00804,13.07458 11.19389,21.4431 z"
     id="path5"
     style="fill:#fcc624;fill-opacity:1;stroke-width:0.56963" /><path
     d="m 197.82868,456.11659 c -0.2774,11.12489 -7.39938,21.8789 -18.22474,25.23241 -18.6508,6.20187 -38.79388,-0.0645 -55.51982,-8.89787 -17.98662,-9.00341 -38.551259,-8.21038 -57.849927,-11.92839 -6.791544,-1.17436 -14.594123,-5.36711 -14.719416,-13.18627 -1.310888,-10.95486 6.441987,-20.54598 4.971944,-31.47283 -0.495732,-10.45077 -5.538247,-21.91584 -0.07861,-31.80207 6.957596,-11.7531 23.448227,-9.4353 32.193652,-19.10942 7.741349,-7.66589 12.001868,-19.89914 23.087388,-23.52101 12.08117,-2.77692 22.83043,6.60657 28.88398,16.13291 7.61372,13.60835 14.76693,27.49461 22.72118,40.89467 11.04308,16.56158 26.95261,30.31809 33.5745,49.53334 0.7696,2.62502 1.23048,5.38567 0.95987,8.12453 z"
     id="path7"
     style="fill:#fcc624;fill-opacity:1;stroke-width:0.56963"
     fill="#D6A312" /><path
     d="m 290.83792,139.25403 c -5.2054,-8.51374 -16.06339,-9.69988 -24.51782,-13.37307 -8.22552,-3.3673 -15.20337,-9.57524 -24.20611,-11.06998 -11.13209,-2.90076 -22.88668,1.6339 -30.76116,9.64928 -5.91351,6.52079 -14.62478,9.93762 -20.09985,16.83332 -3.74283,7.86896 3.10072,15.89316 9.39476,19.9472 8.00266,4.08471 13.55591,11.37482 21.2064,15.90712 11.87195,6.41089 26.37504,2.20216 36.65172,-5.36177 7.60305,-5.89918 17.76774,-6.89908 25.07662,-13.25443 5.40565,-4.42047 10.8429,-12.14043 7.25544,-19.27767 z"
     id="path9"
     style="fill:#fcc624;fill-opacity:1;stroke-width:0.56963"
     fill="#D6A312" /><path
     d="m 262.42476,155.78471 c -10.03642,5.26123 -20.75162,10.90847 -32.43775,10.21746 -11.28293,-0.55577 -21.27903,-6.93917 -29.24558,-14.53223 -2.13666,-2.13642 -5.83255,-4.39947 -4.80024,-7.94597 2.75375,-1.77513 3.45879,3.21783 5.27406,4.46514 7.46074,7.32526 16.46148,14.15258 27.19017,15.30785 10.09263,1.14286 19.77136,-3.14301 28.55659,-7.61054 6.4886,-3.23298 12.21974,-7.74468 17.91425,-12.17183 1.08683,-1.66113 4.49441,-6.20579 5.81412,-2.65936 -1.63589,3.58681 -5.20625,5.78051 -8.12609,8.25746 -3.21905,2.45259 -6.55723,4.77744 -10.13953,6.67202 z"
     id="path11"
     style="fill:#202020;fill-opacity:1;stroke-width:0.56963" /><path
     d="m 398.85123,345.90452 c -7.11676,0.49787 -1.37261,-15.58999 -12.06276,-17.49546 -12.29407,-7.32211 -27.58923,-16.19259 -42.16642,-10.61401 -8.44416,6.46268 -6.90326,17.56184 -18.07267,21.28756 -15.85026,17.19814 -12.20812,42.5598 -15.31024,63.96951 -2.65468,11.07549 -3.44853,24.52563 -16.17637,28.40628 -29.07196,17.38474 -68.22197,20.7555 -97.10361,1.11289 -3.84448,-5.43187 -16.15309,-17.41265 -12.78668,-19.90629 18.27037,-0.21621 15.82704,-22.71617 6.16242,-32.16026 -12.0175,-17.08086 -31.19989,-26.28122 -46.9842,-39.07009 -18.6647,-16.60088 -18.12101,-44.63428 -9.73821,-66.25923 5.77301,-15.68658 13.62562,-31.00367 23.08371,-44.57535 -3.85709,14.43653 -14.45649,27.05901 -18.06351,42.02292 -5.98854,18.61559 -5.83173,40.73053 6.61596,56.76909 0.36931,-30.01365 11.95971,-58.18556 25.11558,-84.64182 11.61194,-25.99821 23.53973,-52.80438 25.60431,-81.56549 12.82881,6.85019 21.81053,21.98342 38.06271,20.7348 16.26216,0.67875 27.45929,-12.87048 42.23625,-17.07284 8.30301,-1.65709 16.14651,-19.32448 16.87556,-3.213 10.11956,34.70468 25.03062,67.754 41.52453,99.83108 6.36853,14.30567 11.33919,29.28361 14.13905,44.70792 15.71703,6.73259 14.00243,-13.93445 14.07654,-24.26228 -1.92337,-22.01357 -12.76628,-42.84954 -28.47003,-58.20866 0.4831,-7.05988 14.48444,12.45798 18.1162,17.86992 13.20783,20.02598 21.81394,45.07692 15.98593,69.07774 11.80637,5.84752 27.97487,11.98222 30.215,26.71144 0.13026,2.21278 -0.22802,4.43306 -0.87905,6.54363 z"
     id="path13"
     fill="#ffffff"
     style="stroke-width:0.56963;opacity:1" /><path
     d="m 291.82908,105.83952 c 0.13221,8.18984 -2.38068,16.51054 -7.51285,22.95041 -3.29365,-2.22266 -7.70918,-2.13841 -10.77874,-4.73203 -0.98069,-1.50931 2.20844,-2.84961 2.45432,-4.68004 2.32472,-5.01415 2.12978,-10.87502 0.81529,-16.13342 -1.28842,-4.228168 -4.09236,-8.976903 -8.89939,-9.564004 -4.90328,-0.41439 -8.76479,3.782681 -10.40422,8.031024 -1.3127,3.46482 -2.24144,7.22452 -1.66085,10.93924 0.69962,1.92665 -0.89826,3.52767 -2.4914,1.79353 -2.79133,-1.18361 -6.2174,-1.2749 -8.64481,-3.38188 -2.66869,-1.90511 -1.55058,-5.24993 -1.37053,-7.92233 0.65387,-10.200971 5.53973,-20.839337 14.78719,-25.907278 5.92722,-3.43858 13.55714,-3.037527 19.37924,0.427281 7.38145,4.209598 11.72049,12.284095 13.46434,20.376541 0.53943,2.564906 0.82263,5.182626 0.86241,7.802956 z"
     id="path15"
     style="fill:#ffffff;stroke-width:0.56963" /><path
     d="m 225.70639,111.5643 c -3.27652,0.17472 -7.36624,4.1663 -9.60866,3.31941 0.43651,-6.15895 -1.0428,-13.29447 -6.33297,-17.085346 -4.00863,-2.098027 -7.97014,1.740182 -8.73699,5.559476 -1.91464,6.00824 -1.1719,13.00795 2.14844,18.3444 3.52688,2.34706 1.23615,4.29085 -1.2317,6.02916 -4.81378,3.32556 -7.11626,-5.67955 -8.91161,-8.94726 -3.62152,-10.6165 -3.30716,-23.33822 3.22708,-32.78683 3.23938,-4.729166 9.42503,-7.938201 15.07504,-5.707026 7.64922,2.809967 11.70135,11.036516 13.4907,18.501985 0.93802,4.180611 1.19197,8.503031 0.88067,12.772031 z"
     id="path17"
     style="fill:#ffffff;stroke-width:0.56963" /><path
     id="path28396-7"
     d="m 240.32118,123.41813 c 0.36845,1.18269 2.27454,0.98667 3.37579,1.55391 0.96633,0.49772 1.74355,1.58865 2.83009,1.62002 1.03696,0.0299 2.65082,-0.35912 2.78572,-1.38771 0.17821,-1.35893 -1.8062,-2.2225 -3.08315,-2.72034 -1.6432,-0.64067 -3.74848,-0.96572 -5.28993,-0.10865 -0.35322,0.19639 -0.73874,0.65694 -0.61852,1.04278 z"
     style="opacity:1;fill:#202020;fill-opacity:1;stroke:none;stroke-width:0.56963" /><path
     style="opacity:1;fill:#202020;fill-opacity:1;stroke:none;stroke-width:0.56963"
     d="m 229.0628,123.41813 c -0.36846,1.18269 -2.27454,0.98667 -3.37579,1.55391 -0.96633,0.49772 -1.74357,1.58865 -2.83009,1.62002 -1.03698,0.0299 -2.65083,-0.35912 -2.78573,-1.38771 -0.17822,-1.35893 1.8062,-2.2225 3.08316,-2.72034 1.6432,-0.64067 3.74848,-0.96572 5.28991,-0.10865 0.35324,0.19639 0.73876,0.65694 0.61854,1.04278 z"
     id="path5461" /></svg>
