<?xml version="1.0" encoding="UTF-8" standalone="no"?>
<svg
   version="1.1"
   id="Calque_1"
   x="0px"
   y="0px"
   width="496"
   height="496"
   viewBox="0 0 496 496"
   enable-background="new 0 0 712 860"
   xml:space="preserve"
   xmlns="http://www.w3.org/2000/svg"
   xmlns:svg="http://www.w3.org/2000/svg"
   xmlns:rdf="http://www.w3.org/1999/02/22-rdf-syntax-ns#"
   xmlns:cc="http://creativecommons.org/ns#"
   xmlns:dc="http://purl.org/dc/elements/1.1/"><metadata
     id="metadata23"><rdf:RDF><cc:Work
         rdf:about=""><dc:format>image/svg+xml</dc:format><dc:type
           rdf:resource="http://purl.org/dc/dcmitype/StillImage" /></cc:Work></rdf:RDF></metadata><defs
     id="defs21" /><path
     d="m 433.89488,392.768 c -0.006,-0.006 -0.012,-0.012 -0.012,-0.017 -3.45708,-3.90197 -5.10388,-11.13627 -6.87486,-18.84337 -1.76642,-7.70141 -3.74247,-16.00662 -10.06537,-21.38963 -0.012,-0.012 -0.029,-0.0228 -0.0399,-0.0347 -1.25319,-1.09369 -2.54055,-2.01592 -3.83362,-2.78549 -1.29818,-0.769 -2.6146,-1.3956 -3.92987,-1.89117 8.78939,-26.06629 5.34313,-52.02377 -3.53172,-75.47602 -10.8856,-28.78918 -29.89416,-53.86943 -44.41404,-71.0267 -16.25155,-20.50099 -32.14481,-39.95957 -31.83094,-68.70311 0.48362,-43.867229 4.8242,-125.2161349 -72.3721,-125.3243646 -3.13866,-0.00569 -6.41404,0.1253186 -9.82612,0.3987412 C 160.89952,14.61898 183.78157,105.75984 182.4999,136.27493 c -1.57788,22.31812 -6.10074,39.90829 -21.45228,61.72514 -18.0288,21.44088 -43.42292,56.14845 -55.44782,92.28011 -5.673513,17.04904 -8.373553,34.42788 -5.884273,50.87881 -0.780398,0.70065 -1.520918,1.43604 -2.232947,2.18795 -5.291869,5.65643 -9.205229,12.50282 -13.562901,17.11112 -4.072857,4.06773 -9.871694,5.61143 -16.251553,7.89508 -6.379859,2.29048 -13.380617,5.66213 -17.630059,13.81923 0,0 0,0.006 -0.0057,0.006 -0.0057,0.0114 -0.01139,0.0285 -0.02279,0.0393 -1.999403,3.73108 -2.648781,7.75837 -2.648781,11.84262 0,3.77665 0.558237,7.60513 1.122171,11.29007 1.173439,7.66722 2.363967,14.91805 0.78609,19.82882 -5.046924,13.80215 -5.696303,23.34346 -2.14181,30.27074 3.565887,6.9381 10.885636,9.997 19.162364,11.72868 16.553458,3.45196 38.968409,2.59752 56.632649,11.96224 l 1.52091,-2.86525 -1.50382,2.87095 c 18.91172,9.88878 38.08548,13.39827 53.38005,9.90587 11.0964,-2.52859 20.09656,-9.1363 24.72196,-19.29908 11.96223,-0.0569 25.09221,-5.12667 46.12296,-6.28245 14.26925,-1.15122 32.09298,5.06913 52.59397,3.92988 0.53545,2.22156 1.31072,4.36337 2.36966,6.39694 0.012,0.0165 0.0228,0.0393 0.0347,0.0569 7.94578,15.89269 22.71059,23.16117 38.45004,21.91937 15.75541,-1.24236 32.50824,-10.53247 46.05462,-26.64731 l -2.48359,-2.08484 2.50124,2.06207 c 12.90783,-15.65344 34.33163,-22.14153 48.5439,-30.70878 7.10329,-4.28362 12.86226,-9.64897 13.31227,-17.44208 0.44317,-7.78685 -4.13096,-16.51359 -14.64634,-28.18531 z"
     id="path3"
     style="fill:#202020;fill-opacity:1;stroke-width:0.56963"
     fill="#000000" /><path
     fill="#D6A312"
     d="m 442.05769,420.58306 c -0.95955,8.55967 -10.29985,12.19927 -16.86696,15.85829 -16.46483,7.82251 -33.88838,15.71635 -45.28564,30.57944 -12.30097,13.75078 -30.49013,25.02905 -49.58238,21.81154 -15.04668,-2.6496 -26.74169,-17.96886 -24.82516,-33.23598 1.6078,-22.58806 13.77085,-43.19786 13.42436,-66.06879 1.2294,-14.36784 1.21002,-29.94908 9.26319,-42.50015 2.38617,-3.38045 9.89795,-10.96775 8.83294,-2.35544 1.63782,10.89032 8.73838,23.30905 20.9314,23.97306 12.71545,0.053 24.57344,-7.14407 33.14852,-16.10481 8.38614,-0.81459 18.35252,-0.21184 23.76214,7.22306 8.00699,11.99814 5.04932,28.95445 16.0037,39.37668 4.98439,6.1948 11.00804,13.07458 11.19389,21.4431 z"
     id="path5"
     style="fill:#fcc624;fill-opacity:1;stroke-width:0.56963" /><path
     d="m 197.82868,456.11659 c -0.2774,11.12489 -7.39938,21.8789 -18.22474,25.23241 -18.6508,6.20187 -38.79388,-0.0645 -55.51982,-8.89787 -17.98662,-9.00341 -38.551259,-8.21038 -57.849927,-11.92839 -6.791544,-1.17436 -14.594123,-5.36711 -14.719416,-13.18627 -1.310888,-10.95486 6.441987,-20.54598 4.971944,-31.47283 -0.495732,-10.45077 -5.538247,-21.91584 -0.07861,-31.80207 6.957596,-11.7531 23.448227,-9.4353 32.193652,-19.10942 7.741349,-7.66589 12.001868,-19.89914 23.087388,-23.52101 12.08117,-2.77692 22.83043,6.60657 28.88398,16.13291 7.61372,13.60835 14.76693,27.49461 22.72118,40.89467 11.04308,16.56158 26.95261,30.31809 33.5745,49.53334 0.7696,2.62502 1.23048,5.38567 0.95987,8.12453 z"
     id="path7"
     style="fill:#fcc624;fill-opacity:1;stroke-width:0.56963"
     fill="#D6A312" /><path
     d="m 290.83792,139.25403 c -5.2054,-8.51374 -16.06339,-9.69988 -24.51782,-13.37307 -8.22552,-3.3673 -15.20337,-9.57524 -24.20611,-11.06998 -11.13209,-2.90076 -22.88668,1.6339 -30.76116,9.64928 -5.91351,6.52079 -14.62478,9.93762 -20.09985,16.83332 -3.74283,7.86896 3.10072,15.89316 9.39476,19.9472 8.00266,4.08471 13.55591,11.37482 21.2064,15.90712 11.87195,6.41089 26.37504,2.20216 36.65172,-5.36177 7.60305,-5.89918 17.76774,-6.89908 25.07662,-13.25443 5.40565,-4.42047 10.8429,-12.14043 7.25544,-19.27767 z"
     id="path9"
     style="fill:#fcc624;fill-opacity:1;stroke-width:0.56963"
     fill="#D6A312" /><path
     d="m 262.42476,155.78471 c -10.03642,5.26123 -20.75162,10.90847 -32.43775,10.21746 -11.28293,-0.55577 -21.27903,-6.93917 -29.24558,-14.53223 -2.13666,-2.13642 -5.83255,-4.39947 -4.80024,-7.94597 2.75375,-1.77513 3.45879,3.21783 5.27406,4.46514 7.46074,7.32526 16.46148,14.15258 27.19017,15.30785 10.09263,1.14286 19.77136,-3.14301 28.55659,-7.61054 6.4886,-3.23298 12.21974,-7.74468 17.91425,-12.17183 1.08683,-1.66113 4.49441,-6.20579 5.81412,-2.65936 -1.63589,3.58681 -5.20625,5.78051 -8.12609,8.25746 -3.21905,2.45259 -6.55723,4.77744 -10.13953,6.67202 z"
     id="path11"
     style="fill:#202020;fill-opacity:1;stroke-width:0.56963" /><path
     d="m 398.85123,345.90452 c -7.11676,0.49787 -1.37261,-15.58999 -12.06276,-17.49546 -12.29407,-7.32211 -27.58923,-16.19259 -42.16642,-10.61401 -8.44416,6.46268 -6.90326,17.56184 -18.07267,21.28756 -15.85026,17.19814 -12.20812,42.5598 -15.31024,63.96951 -2.65468,11.07549 -3.44853,24.52563 -16.17637,28.40628 -29.07196,17.38474 -68.22197,20.7555 -97.10361,1.11289 -3.84448,-5.43187 -16.15309,-17.41265 -12.78668,-19.90629 18.27037,-0.21621 15.82704,-22.71617 6.16242,-32.16026 -12.0175,-17.08086 -31.19989,-26.28122 -46.9842,-39.07009 -18.6647,-16.60088 -18.12101,-44.63428 -9.73821,-66.25923 5.77301,-15.68658 13.62562,-31.00367 23.08371,-44.57535 -3.85709,14.43653 -14.45649,27.05901 -18.06351,42.02292 -5.98854,18.61559 -5.83173,40.73053 6.61596,56.76909 0.36931,-30.01365 11.95971,-58.18556 25.11558,-84.64182 11.61194,-25.99821 23.53973,-52.80438 25.60431,-81.56549 12.82881,6.85019 21.81053,21.98342 38.06271,20.7348 16.26216,0.67875 27.45929,-12.87048 42.23625,-17.07284 8.30301,-1.65709 16.14651,-19.32448 16.87556,-3.213 10.11956,34.70468 25.03062,67.754 41.52453,99.83108 6.36853,14.30567 11.33919,29.28361 14.13905,44.70792 15.71703,6.73259 14.00243,-13.93445 14.07654,-24.26228 -1.92337,-22.01357 -12.76628,-42.84954 -28.47003,-58.20866 0.4831,-7.05988 14.48444,12.45798 18.1162,17.86992 13.20783,20.02598 21.81394,45.07692 15.98593,69.07774 11.80637,5.84752 27.97487,11.98222 30.215,26.71144 0.13026,2.21278 -0.22802,4.43306 -0.87905,6.54363 z"
     id="path13"
     fill="#ffffff"
     style="stroke-width:0.56963;opacity:1" /><path
     d="m 291.82908,105.83952 c 0.13221,8.18984 -2.38068,16.51054 -7.51285,22.95041 -3.29365,-2.22266 -7.70918,-2.13841 -10.77874,-4.73203 -0.98069,-1.50931 2.20844,-2.84961 2.45432,-4.68004 2.32472,-5.01415 2.12978,-10.87502 0.81529,-16.13342 -1.28842,-4.228168 -4.09236,-8.976903 -8.89939,-9.564004 -4.90328,-0.41439 -8.76479,3.782681 -10.40422,8.031024 -1.3127,3.46482 -2.24144,7.22452 -1.66085,10.93924 0.69962,1.92665 -0.89826,3.52767 -2.4914,1.79353 -2.79133,-1.18361 -6.2174,-1.2749 -8.64481,-3.38188 -2.66869,-1.90511 -1.55058,-5.24993 -1.37053,-7.92233 0.65387,-10.200971 5.53973,-20.839337 14.78719,-25.907278 5.92722,-3.43858 13.55714,-3.037527 19.37924,0.427281 7.38145,4.209598 11.72049,12.284095 13.46434,20.376541 0.53943,2.564906 0.82263,5.182626 0.86241,7.802956 z"
     id="path15"
     style="fill:#ffffff;stroke-width:0.56963" /><path
     d="m 225.70639,111.5643 c -3.27652,0.17472 -7.36624,4.1663 -9.60866,3.31941 0.43651,-6.15895 -1.0428,-13.29447 -6.33297,-17.085346 -4.00863,-2.098027 -7.97014,1.740182 -8.73699,5.559476 -1.91464,6.00824 -1.1719,13.00795 2.14844,18.3444 3.52688,2.34706 1.23615,4.29085 -1.2317,6.02916 -4.81378,3.32556 -7.11626,-5.67955 -8.91161,-8.94726 -3.62152,-10.6165 -3.30716,-23.33822 3.22708,-32.78683 3.23938,-4.729166 9.42503,-7.938201 15.07504,-5.707026 7.64922,2.809967 11.70135,11.036516 13.4907,18.501985 0.93802,4.180611 1.19197,8.503031 0.88067,12.772031 z"
     id="path17"
     style="fill:#ffffff;stroke-width:0.56963" /><path
     id="path28396-7"
     d="m 240.32118,123.41813 c 0.36845,1.18269 2.27454,0.98667 3.37579,1.55391 0.96633,0.49772 1.74355,1.58865 2.83009,1.62002 1.03696,0.0299 2.65082,-0.35912 2.78572,-1.38771 0.17821,-1.35893 -1.8062,-2.2225 -3.08315,-2.72034 -1.6432,-0.64067 -3.74848,-0.96572 -5.28993,-0.10865 -0.35322,0.19639 -0.73874,0.65694 -0.61852,1.04278 z"
     style="opacity:1;fill:#202020;fill-opacity:1;stroke:none;stroke-width:0.56963" /><path
     style="opacity:1;fill:#202020;fill-opacity:1;stroke:none;stroke-width:0.56963"
     d="m 229.0628,123.41813 c -0.36846,1.18269 -2.27454,0.98667 -3.37579,1.55391 -0.96633,0.49772 -1.74357,1.58865 -2.83009,1.62002 -1.03698,0.0299 -2.65083,-0.35912 -2.78573,-1.38771 -0.17822,-1.35893 1.8062,-2.2225 3.08316,-2.72034 1.6432,-0.64067 3.74848,-0.96572 5.28991,-0.10865 0.35324,0.19639 0.73876,0.65694 0.61854,1.04278 z"
     id="path5461" /></svg>
