<?xml version="1.0" encoding="UTF-8"?>
<svg xmlns="http://www.w3.org/2000/svg" xmlns:xlink="http://www.w3.org/1999/xlink" width="496" height="496" viewBox="0 0 496 496" version="1.1">
<defs>
<linearGradient id="linear0" gradientUnits="userSpaceOnUse" x1="64" y1="16" x2="64" y2="112" gradientTransform="matrix(3.875,0,0,3.875,0,0)">
<stop offset="0" style="stop-color:rgb(34.509805%,82.745099%,98.039216%);stop-opacity:1;"/>
<stop offset="1" style="stop-color:rgb(17.254902%,29.803923%,96.078432%);stop-opacity:1;"/>
</linearGradient>
</defs>
<g id="surface1">
<path style=" stroke:none;fill-rule:nonzero;fill:rgb(95.686275%,96.078432%,100%);fill-opacity:1;" d="M 496 248 C 496 384.964844 384.964844 496 248 496 C 111.035156 496 0 384.964844 0 248 C 0 111.035156 111.035156 0 248 0 C 384.964844 0 496 111.035156 496 248 Z M 496 248 "/>
<path style=" stroke:none;fill-rule:nonzero;fill:url(#linear0);" d="M 434 248 C 434 350.726562 350.726562 434 248 434 C 145.273438 434 62 350.726562 62 248 C 62 145.273438 145.273438 62 248 62 C 350.726562 62 434 145.273438 434 248 Z M 434 248 "/>
<path style=" stroke:none;fill-rule:nonzero;fill:rgb(95.686275%,96.078432%,100%);fill-opacity:1;" d="M 323.175781 346.8125 C 314.910156 348.878906 303.929688 351.074219 290.238281 353.398438 C 276.804688 355.726562 261.175781 356.886719 243.351562 356.886719 C 227.851562 356.886719 214.804688 354.691406 204.210938 350.300781 C 193.621094 345.648438 185.097656 339.191406 178.636719 330.925781 C 172.179688 322.660156 167.527344 312.972656 164.6875 301.863281 C 161.847656 290.496094 160.425781 277.964844 160.425781 264.273438 L 160.425781 151.125 L 196.460938 151.125 L 196.460938 256.523438 C 196.460938 281.066406 200.335938 298.632812 208.085938 309.226562 C 215.835938 319.816406 228.882812 325.113281 247.226562 325.113281 C 251.101562 325.113281 255.105469 324.984375 259.238281 324.726562 C 263.371094 324.464844 267.246094 324.207031 270.863281 323.949219 C 274.480469 323.433594 277.707031 323.046875 280.550781 322.789062 C 283.648438 322.269531 285.847656 321.753906 287.136719 321.238281 L 287.136719 151.125 L 323.175781 151.125 Z M 323.175781 346.8125 "/>
</g>
</svg>
