<?xml version="1.0" encoding="UTF-8" standalone="no"?>
<svg
   width="496"
   height="496"
   viewBox="0 0 496 496"
   version="1.1"
   preserveAspectRatio="xMidYMid"
   id="svg6"
   xmlns="http://www.w3.org/2000/svg"
   xmlns:svg="http://www.w3.org/2000/svg">
  <defs
     id="defs6" />
  <g
     id="g6"
     transform="matrix(1.8829212,0,0,1.8829212,6.4459535,51.238161)">
    <path
       d="M 128.60184,0.06351709 C 106.56996,0.11030023 85.108398,7.0707856 67.242783,19.963685 l 23.902685,23.902684 c 11.277442,-6.898594 24.236282,-10.559734 37.456372,-10.582214 39.77241,-7.9e-5 72.01434,32.241846 72.01426,72.014265 -0.0318,13.21538 -3.69956,26.16719 -10.60151,37.43708 l 23.94799,23.94799 c 12.8888,-17.87595 19.8404,-39.34715 19.87417,-61.38507 0,-58.119629 -47.11529,-105.23490291 -105.23491,-105.23490291 z"
       fill="#abc2ab"
       id="path1"
       style="fill:#cccccc;fill-opacity:1" />
    <path
       d="m 189.9609,190.63315 -23.90269,-23.90268 c -11.27745,6.89859 -24.23629,10.55974 -37.45637,10.58221 -39.772411,8e-5 -72.014337,-32.24185 -72.014258,-72.01426 0.03183,-13.215385 3.699547,-26.167199 10.60151,-37.437084 L 43.241093,43.913349 C 30.352276,61.789286 23.400712,83.260494 23.366944,105.29842 c 0,58.11962 47.115274,105.2349 105.234896,105.2349 22.03188,-0.0468 43.49344,-7.00726 61.35906,-19.90017 z"
       fill="#478061"
       id="path2"
       style="fill:#cccccc;fill-opacity:1" />
    <circle
       fill="#abc2ab"
       cx="128.58502"
       cy="105.29842"
       r="33.503357"
       id="circle2"
       style="fill:#cccccc;fill-opacity:1" />
  </g>
</svg>
